<?xml version="1.0" encoding="utf-8" standalone="no"?>
<!DOCTYPE svg PUBLIC "-//W3C//DTD SVG 1.1//EN"
  "http://www.w3.org/Graphics/SVG/1.1/DTD/svg11.dtd">
<svg xmlns:xlink="http://www.w3.org/1999/xlink" width="638.833312pt" height="393.45225pt" viewBox="0 0 638.833312 393.45225" xmlns="http://www.w3.org/2000/svg" version="1.1">
 <metadata>
  <rdf:RDF xmlns:dc="http://purl.org/dc/elements/1.1/" xmlns:cc="http://creativecommons.org/ns#" xmlns:rdf="http://www.w3.org/1999/02/22-rdf-syntax-ns#">
   <cc:Work>
    <dc:type rdf:resource="http://purl.org/dc/dcmitype/StillImage"/>
    <dc:date>2026-06-15T19:05:39.491575</dc:date>
    <dc:format>image/svg+xml</dc:format>
    <dc:creator>
     <cc:Agent>
      <dc:title>Matplotlib v3.6.3, https://matplotlib.org/</dc:title>
     </cc:Agent>
    </dc:creator>
   </cc:Work>
  </rdf:RDF>
 </metadata>
 <defs>
  <style type="text/css">*{stroke-linejoin: round; stroke-linecap: butt}</style>
 </defs>
 <g id="figure_1">
  <g id="patch_1">
   <path d="M 0 393.45225 
L 638.833312 393.45225 
L 638.833312 0 
L 0 0 
z
" style="fill: #fcfcfd"/>
  </g>
  <g id="axes_1">
   <g id="patch_2">
    <path d="M 55.345313 195.392348 
L 631.633312 195.392348 
L 631.633312 71.928 
L 55.345313 71.928 
z
" style="fill: #ffffff"/>
   </g>
   <g id="matplotlib.axis_1">
    <g id="xtick_1">
     <g id="line2d_1">
      <defs>
       <path id="m644ccd13af" d="M 0 0 
L 0 3.5 
" style="stroke: #6f768a; stroke-width: 0.8"/>
      </defs>
      <g>
       <use xlink:href="#m644ccd13af" x="81.540222" y="195.392348" style="fill: #6f768a; stroke: #6f768a; stroke-width: 0.8"/>
      </g>
     </g>
    </g>
    <g id="xtick_2">
     <g id="line2d_2">
      <g>
       <use xlink:href="#m644ccd13af" x="148.552013" y="195.392348" style="fill: #6f768a; stroke: #6f768a; stroke-width: 0.8"/>
      </g>
     </g>
    </g>
    <g id="xtick_3">
     <g id="line2d_3">
      <g>
       <use xlink:href="#m644ccd13af" x="215.563804" y="195.392348" style="fill: #6f768a; stroke: #6f768a; stroke-width: 0.8"/>
      </g>
     </g>
    </g>
    <g id="xtick_4">
     <g id="line2d_4">
      <g>
       <use xlink:href="#m644ccd13af" x="282.575595" y="195.392348" style="fill: #6f768a; stroke: #6f768a; stroke-width: 0.8"/>
      </g>
     </g>
    </g>
    <g id="xtick_5">
     <g id="line2d_5">
      <g>
       <use xlink:href="#m644ccd13af" x="349.587385" y="195.392348" style="fill: #6f768a; stroke: #6f768a; stroke-width: 0.8"/>
      </g>
     </g>
    </g>
    <g id="xtick_6">
     <g id="line2d_6">
      <g>
       <use xlink:href="#m644ccd13af" x="416.599176" y="195.392348" style="fill: #6f768a; stroke: #6f768a; stroke-width: 0.8"/>
      </g>
     </g>
    </g>
    <g id="xtick_7">
     <g id="line2d_7">
      <g>
       <use xlink:href="#m644ccd13af" x="483.610967" y="195.392348" style="fill: #6f768a; stroke: #6f768a; stroke-width: 0.8"/>
      </g>
     </g>
    </g>
    <g id="xtick_8">
     <g id="line2d_8">
      <g>
       <use xlink:href="#m644ccd13af" x="550.622758" y="195.392348" style="fill: #6f768a; stroke: #6f768a; stroke-width: 0.8"/>
      </g>
     </g>
    </g>
    <g id="xtick_9">
     <g id="line2d_9">
      <g>
       <use xlink:href="#m644ccd13af" x="617.634549" y="195.392348" style="fill: #6f768a; stroke: #6f768a; stroke-width: 0.8"/>
      </g>
     </g>
    </g>
   </g>
   <g id="matplotlib.axis_2">
    <g id="ytick_1">
     <g id="line2d_10">
      <path d="M 55.345313 177.616946 
L 631.633312 177.616946 
" clip-path="url(#p8e2fd872ab)" style="fill: none; stroke: #e6e8f0; stroke-width: 0.8; stroke-linecap: square"/>
     </g>
     <g id="line2d_11">
      <defs>
       <path id="m18630df52b" d="M 0 0 
L -3.5 0 
" style="stroke: #6f768a; stroke-width: 0.8"/>
      </defs>
      <g>
       <use xlink:href="#m18630df52b" x="55.345313" y="177.616946" style="fill: #6f768a; stroke: #6f768a; stroke-width: 0.8"/>
      </g>
     </g>
     <g id="text_1">
      <!-- −100 -->
      <g style="fill: #6f768a" transform="translate(20.878125 181.416164) scale(0.1 -0.1)">
       <defs>
        <path id="DejaVuSans-2212" d="M 678 2272 
L 4684 2272 
L 4684 1741 
L 678 1741 
L 678 2272 
z
" transform="scale(0.015625)"/>
        <path id="DejaVuSans-31" d="M 794 531 
L 1825 531 
L 1825 4091 
L 703 3866 
L 703 4441 
L 1819 4666 
L 2450 4666 
L 2450 531 
L 3481 531 
L 3481 0 
L 794 0 
L 794 531 
z
" transform="scale(0.015625)"/>
        <path id="DejaVuSans-30" d="M 2034 4250 
Q 1547 4250 1301 3770 
Q 1056 3291 1056 2328 
Q 1056 1369 1301 889 
Q 1547 409 2034 409 
Q 2525 409 2770 889 
Q 3016 1369 3016 2328 
Q 3016 3291 2770 3770 
Q 2525 4250 2034 4250 
z
M 2034 4750 
Q 2819 4750 3233 4129 
Q 3647 3509 3647 2328 
Q 3647 1150 3233 529 
Q 2819 -91 2034 -91 
Q 1250 -91 836 529 
Q 422 1150 422 2328 
Q 422 3509 836 4129 
Q 1250 4750 2034 4750 
z
" transform="scale(0.015625)"/>
       </defs>
       <use xlink:href="#DejaVuSans-2212"/>
       <use xlink:href="#DejaVuSans-31" x="83.789062"/>
       <use xlink:href="#DejaVuSans-30" x="147.412109"/>
       <use xlink:href="#DejaVuSans-30" x="211.035156"/>
      </g>
     </g>
    </g>
    <g id="ytick_2">
     <g id="line2d_12">
      <path d="M 55.345313 152.658522 
L 631.633312 152.658522 
" clip-path="url(#p8e2fd872ab)" style="fill: none; stroke: #e6e8f0; stroke-width: 0.8; stroke-linecap: square"/>
     </g>
     <g id="line2d_13">
      <g>
       <use xlink:href="#m18630df52b" x="55.345313" y="152.658522" style="fill: #6f768a; stroke: #6f768a; stroke-width: 0.8"/>
      </g>
     </g>
     <g id="text_2">
      <!-- −50 -->
      <g style="fill: #6f768a" transform="translate(27.240625 156.457741) scale(0.1 -0.1)">
       <defs>
        <path id="DejaVuSans-35" d="M 691 4666 
L 3169 4666 
L 3169 4134 
L 1269 4134 
L 1269 2991 
Q 1406 3038 1543 3061 
Q 1681 3084 1819 3084 
Q 2600 3084 3056 2656 
Q 3513 2228 3513 1497 
Q 3513 744 3044 326 
Q 2575 -91 1722 -91 
Q 1428 -91 1123 -41 
Q 819 9 494 109 
L 494 744 
Q 775 591 1075 516 
Q 1375 441 1709 441 
Q 2250 441 2565 725 
Q 2881 1009 2881 1497 
Q 2881 1984 2565 2268 
Q 2250 2553 1709 2553 
Q 1456 2553 1204 2497 
Q 953 2441 691 2322 
L 691 4666 
z
" transform="scale(0.015625)"/>
       </defs>
       <use xlink:href="#DejaVuSans-2212"/>
       <use xlink:href="#DejaVuSans-35" x="83.789062"/>
       <use xlink:href="#DejaVuSans-30" x="147.412109"/>
      </g>
     </g>
    </g>
    <g id="ytick_3">
     <g id="line2d_14">
      <path d="M 55.345313 127.700098 
L 631.633312 127.700098 
" clip-path="url(#p8e2fd872ab)" style="fill: none; stroke: #e6e8f0; stroke-width: 0.8; stroke-linecap: square"/>
     </g>
     <g id="line2d_15">
      <g>
       <use xlink:href="#m18630df52b" x="55.345313" y="127.700098" style="fill: #6f768a; stroke: #6f768a; stroke-width: 0.8"/>
      </g>
     </g>
     <g id="text_3">
      <!-- 0 -->
      <g style="fill: #6f768a" transform="translate(41.982813 131.499317) scale(0.1 -0.1)">
       <use xlink:href="#DejaVuSans-30"/>
      </g>
     </g>
    </g>
    <g id="ytick_4">
     <g id="line2d_16">
      <path d="M 55.345313 102.741674 
L 631.633312 102.741674 
" clip-path="url(#p8e2fd872ab)" style="fill: none; stroke: #e6e8f0; stroke-width: 0.8; stroke-linecap: square"/>
     </g>
     <g id="line2d_17">
      <g>
       <use xlink:href="#m18630df52b" x="55.345313" y="102.741674" style="fill: #6f768a; stroke: #6f768a; stroke-width: 0.8"/>
      </g>
     </g>
     <g id="text_4">
      <!-- 50 -->
      <g style="fill: #6f768a" transform="translate(35.620313 106.540893) scale(0.1 -0.1)">
       <use xlink:href="#DejaVuSans-35"/>
       <use xlink:href="#DejaVuSans-30" x="63.623047"/>
      </g>
     </g>
    </g>
    <g id="ytick_5">
     <g id="line2d_18">
      <path d="M 55.345313 77.78325 
L 631.633312 77.78325 
" clip-path="url(#p8e2fd872ab)" style="fill: none; stroke: #e6e8f0; stroke-width: 0.8; stroke-linecap: square"/>
     </g>
     <g id="line2d_19">
      <g>
       <use xlink:href="#m18630df52b" x="55.345313" y="77.78325" style="fill: #6f768a; stroke: #6f768a; stroke-width: 0.8"/>
      </g>
     </g>
     <g id="text_5">
      <!-- 100 -->
      <g style="fill: #6f768a" transform="translate(29.257813 81.582469) scale(0.1 -0.1)">
       <use xlink:href="#DejaVuSans-31"/>
       <use xlink:href="#DejaVuSans-30" x="63.623047"/>
       <use xlink:href="#DejaVuSans-30" x="127.246094"/>
      </g>
     </g>
    </g>
    <g id="text_6">
     <!-- Angolo (deg) -->
     <g style="fill: #1f2430" transform="translate(14.798438 165.846893) rotate(-90) scale(0.1 -0.1)">
      <defs>
       <path id="DejaVuSans-41" d="M 2188 4044 
L 1331 1722 
L 3047 1722 
L 2188 4044 
z
M 1831 4666 
L 2547 4666 
L 4325 0 
L 3669 0 
L 3244 1197 
L 1141 1197 
L 716 0 
L 50 0 
L 1831 4666 
z
" transform="scale(0.015625)"/>
       <path id="DejaVuSans-6e" d="M 3513 2113 
L 3513 0 
L 2938 0 
L 2938 2094 
Q 2938 2591 2744 2837 
Q 2550 3084 2163 3084 
Q 1697 3084 1428 2787 
Q 1159 2491 1159 1978 
L 1159 0 
L 581 0 
L 581 3500 
L 1159 3500 
L 1159 2956 
Q 1366 3272 1645 3428 
Q 1925 3584 2291 3584 
Q 2894 3584 3203 3211 
Q 3513 2838 3513 2113 
z
" transform="scale(0.015625)"/>
       <path id="DejaVuSans-67" d="M 2906 1791 
Q 2906 2416 2648 2759 
Q 2391 3103 1925 3103 
Q 1463 3103 1205 2759 
Q 947 2416 947 1791 
Q 947 1169 1205 825 
Q 1463 481 1925 481 
Q 2391 481 2648 825 
Q 2906 1169 2906 1791 
z
M 3481 434 
Q 3481 -459 3084 -895 
Q 2688 -1331 1869 -1331 
Q 1566 -1331 1297 -1286 
Q 1028 -1241 775 -1147 
L 775 -588 
Q 1028 -725 1275 -790 
Q 1522 -856 1778 -856 
Q 2344 -856 2625 -561 
Q 2906 -266 2906 331 
L 2906 616 
Q 2728 306 2450 153 
Q 2172 0 1784 0 
Q 1141 0 747 490 
Q 353 981 353 1791 
Q 353 2603 747 3093 
Q 1141 3584 1784 3584 
Q 2172 3584 2450 3431 
Q 2728 3278 2906 2969 
L 2906 3500 
L 3481 3500 
L 3481 434 
z
" transform="scale(0.015625)"/>
       <path id="DejaVuSans-6f" d="M 1959 3097 
Q 1497 3097 1228 2736 
Q 959 2375 959 1747 
Q 959 1119 1226 758 
Q 1494 397 1959 397 
Q 2419 397 2687 759 
Q 2956 1122 2956 1747 
Q 2956 2369 2687 2733 
Q 2419 3097 1959 3097 
z
M 1959 3584 
Q 2709 3584 3137 3096 
Q 3566 2609 3566 1747 
Q 3566 888 3137 398 
Q 2709 -91 1959 -91 
Q 1206 -91 779 398 
Q 353 888 353 1747 
Q 353 2609 779 3096 
Q 1206 3584 1959 3584 
z
" transform="scale(0.015625)"/>
       <path id="DejaVuSans-6c" d="M 603 4863 
L 1178 4863 
L 1178 0 
L 603 0 
L 603 4863 
z
" transform="scale(0.015625)"/>
       <path id="DejaVuSans-20" transform="scale(0.015625)"/>
       <path id="DejaVuSans-28" d="M 1984 4856 
Q 1566 4138 1362 3434 
Q 1159 2731 1159 2009 
Q 1159 1288 1364 580 
Q 1569 -128 1984 -844 
L 1484 -844 
Q 1016 -109 783 600 
Q 550 1309 550 2009 
Q 550 2706 781 3412 
Q 1013 4119 1484 4856 
L 1984 4856 
z
" transform="scale(0.015625)"/>
       <path id="DejaVuSans-64" d="M 2906 2969 
L 2906 4863 
L 3481 4863 
L 3481 0 
L 2906 0 
L 2906 525 
Q 2725 213 2448 61 
Q 2172 -91 1784 -91 
Q 1150 -91 751 415 
Q 353 922 353 1747 
Q 353 2572 751 3078 
Q 1150 3584 1784 3584 
Q 2172 3584 2448 3432 
Q 2725 3281 2906 2969 
z
M 947 1747 
Q 947 1113 1208 752 
Q 1469 391 1925 391 
Q 2381 391 2643 752 
Q 2906 1113 2906 1747 
Q 2906 2381 2643 2742 
Q 2381 3103 1925 3103 
Q 1469 3103 1208 2742 
Q 947 2381 947 1747 
z
" transform="scale(0.015625)"/>
       <path id="DejaVuSans-65" d="M 3597 1894 
L 3597 1613 
L 953 1613 
Q 991 1019 1311 708 
Q 1631 397 2203 397 
Q 2534 397 2845 478 
Q 3156 559 3463 722 
L 3463 178 
Q 3153 47 2828 -22 
Q 2503 -91 2169 -91 
Q 1331 -91 842 396 
Q 353 884 353 1716 
Q 353 2575 817 3079 
Q 1281 3584 2069 3584 
Q 2775 3584 3186 3129 
Q 3597 2675 3597 1894 
z
M 3022 2063 
Q 3016 2534 2758 2815 
Q 2500 3097 2075 3097 
Q 1594 3097 1305 2825 
Q 1016 2553 972 2059 
L 3022 2063 
z
" transform="scale(0.015625)"/>
       <path id="DejaVuSans-29" d="M 513 4856 
L 1013 4856 
Q 1481 4119 1714 3412 
Q 1947 2706 1947 2009 
Q 1947 1309 1714 600 
Q 1481 -109 1013 -844 
L 513 -844 
Q 928 -128 1133 580 
Q 1338 1288 1338 2009 
Q 1338 2731 1133 3434 
Q 928 4138 513 4856 
z
" transform="scale(0.015625)"/>
      </defs>
      <use xlink:href="#DejaVuSans-41"/>
      <use xlink:href="#DejaVuSans-6e" x="68.408203"/>
      <use xlink:href="#DejaVuSans-67" x="131.787109"/>
      <use xlink:href="#DejaVuSans-6f" x="195.263672"/>
      <use xlink:href="#DejaVuSans-6c" x="256.445312"/>
      <use xlink:href="#DejaVuSans-6f" x="284.228516"/>
      <use xlink:href="#DejaVuSans-20" x="345.410156"/>
      <use xlink:href="#DejaVuSans-28" x="377.197266"/>
      <use xlink:href="#DejaVuSans-64" x="416.210938"/>
      <use xlink:href="#DejaVuSans-65" x="479.6875"/>
      <use xlink:href="#DejaVuSans-67" x="541.210938"/>
      <use xlink:href="#DejaVuSans-29" x="604.6875"/>
     </g>
    </g>
   </g>
   <g id="line2d_20">
    <path d="M 81.540222 127.700098 
L 81.942292 127.495869 
L 82.344363 127.587492 
L 82.746434 127.907181 
L 83.148505 128.010068 
L 83.550575 127.80468 
L 83.952646 127.193452 
L 84.354717 126.305674 
L 84.756788 125.942531 
L 85.158858 125.786939 
L 85.560929 125.826268 
L 85.963 126.112953 
L 86.365071 126.700453 
L 87.169212 128.440114 
L 87.973354 129.200451 
L 88.375424 129.263173 
L 88.777495 128.991539 
L 89.179566 128.400519 
L 89.581637 127.338896 
L 89.983707 126.613408 
L 90.787849 126.057754 
L 91.189919 126.07055 
L 91.59199 126.356297 
L 91.994061 126.938881 
L 92.396132 127.964647 
L 93.200273 128.694875 
L 93.602344 128.943331 
L 94.004415 128.8734 
L 94.406485 128.438204 
L 94.808556 127.640644 
L 95.210627 126.550067 
L 95.612698 126.158458 
L 96.416839 125.932227 
L 97.220981 126.114053 
L 97.623051 126.538182 
L 98.025122 127.703861 
L 98.427193 128.473545 
L 99.231334 129.350602 
L 99.633405 129.273237 
L 100.035476 128.759819 
L 101.241688 126.686291 
L 102.04583 126.431163 
L 102.4479 126.415557 
L 102.849971 126.883466 
L 103.252042 127.855239 
L 104.056183 128.78777 
L 104.458254 129.048523 
L 104.860325 128.953314 
L 105.262396 128.481295 
L 105.664466 127.517026 
L 106.066537 126.145381 
L 106.468608 125.594953 
L 106.870679 125.528729 
L 107.67482 125.972116 
L 108.076891 126.256261 
L 108.478962 126.798965 
L 108.881032 128.452279 
L 109.685174 129.50165 
L 110.087245 129.623069 
L 110.489315 129.318999 
L 110.891386 128.698214 
L 111.293457 127.508233 
L 111.695528 126.961592 
L 112.097598 126.710033 
L 112.499669 126.627649 
L 112.90174 126.756644 
L 113.303811 127.137787 
L 114.107952 128.536575 
L 114.912093 129.123673 
L 115.314164 129.083769 
L 115.716235 128.718035 
L 116.118306 128.009682 
L 116.520376 126.905458 
L 116.922447 126.495716 
L 117.726589 126.302941 
L 118.53073 126.611643 
L 119.334872 126.102921 
L 119.736942 127.366027 
L 120.139013 127.747176 
L 120.541084 127.748581 
L 120.943155 127.561058 
L 121.345225 126.73705 
L 121.747296 125.576138 
L 122.149367 125.474027 
L 122.953508 125.591054 
L 123.75765 126.0599 
L 124.159721 126.359378 
L 124.963862 126.5223 
L 125.365933 127.672291 
L 125.768004 128.230912 
L 126.572145 128.302296 
L 126.974216 128.537456 
L 127.376287 128.399526 
L 127.778357 128.959515 
L 128.582499 130.929432 
L 128.98457 132.006782 
L 129.38664 132.606425 
L 129.788711 131.867221 
L 130.190782 130.839941 
L 130.592853 133.395136 
L 130.994923 143.312909 
L 131.396994 161.838459 
L 131.799065 170.944227 
L 132.603206 171.042334 
L 133.005277 159.212833 
L 133.407348 116.397932 
L 133.809419 105.720578 
L 134.211489 98.133759 
L 134.61356 95.674506 
L 135.417702 87.791006 
L 135.819772 87.148686 
L 136.623914 86.360507 
L 137.025985 91.406991 
L 137.428055 160.369816 
L 137.830126 166.691729 
L 138.634267 162.919766 
L 139.036338 164.91862 
L 140.24255 172.374371 
L 141.046692 186.292574 
L 141.448763 185.173942 
L 141.850833 181.506268 
L 142.252904 180.160054 
L 143.057046 173.816797 
L 143.861187 170.906928 
L 144.263258 170.596892 
L 144.665329 169.824647 
L 145.067399 166.365186 
L 145.46947 166.720187 
L 146.273612 173.909609 
L 147.077753 168.896422 
L 147.479824 168.164308 
L 147.881895 169.207438 
L 148.283965 174.912402 
L 148.686036 175.606465 
L 149.088107 172.612242 
L 149.490178 170.886913 
L 149.892248 171.830463 
L 150.294319 177.437471 
L 150.69639 185.182282 
L 151.098461 185.212677 
L 151.500531 180.576019 
L 152.706744 175.234388 
L 153.510885 170.112452 
L 153.912956 169.802357 
L 154.315027 170.690318 
L 154.717097 168.317055 
L 155.119168 167.516163 
L 155.521239 171.225636 
L 156.32538 189.780332 
L 156.727451 188.675969 
L 157.129522 183.629157 
L 157.531593 181.983064 
L 157.933663 179.234265 
L 158.335734 175.047759 
L 158.737805 172.172025 
L 159.139876 171.984809 
L 159.944017 172.702973 
L 160.748159 175.275285 
L 161.5523 175.471395 
L 161.954371 180.028324 
L 162.356442 187.460521 
L 162.758512 188.375781 
L 163.160583 184.92898 
L 163.562654 179.775529 
L 164.366795 173.474547 
L 164.768866 174.54488 
L 165.170937 173.888677 
L 165.170937 173.888677 
" clip-path="url(#p8e2fd872ab)" style="fill: none; stroke: #5477c4; stroke-width: 1.2; stroke-linecap: square"/>
   </g>
   <g id="line2d_21">
    <path d="M 81.540222 127.700098 
L 81.942292 126.812567 
L 82.746434 126.536476 
L 83.952646 125.823733 
L 84.756788 125.927624 
L 86.365071 126.460644 
L 87.169212 126.594384 
L 89.581637 126.458743 
L 90.787849 126.774598 
L 92.396132 126.955436 
L 92.798202 126.927735 
L 93.602344 127.476226 
L 94.406485 127.622504 
L 95.210627 127.459538 
L 96.014768 128.111699 
L 96.81891 128.439918 
L 97.220981 127.851312 
L 97.623051 127.870875 
L 98.025122 128.027827 
L 98.427193 128.023408 
L 98.829264 128.216684 
L 99.231334 128.250114 
L 100.035476 127.645592 
L 100.437547 127.682655 
L 101.643759 128.362167 
L 102.04583 128.271028 
L 102.4479 127.564911 
L 103.252042 127.858694 
L 103.654113 127.698967 
L 104.458254 128.052358 
L 104.860325 128.20585 
L 105.262396 128.145949 
L 105.664466 127.963064 
L 106.468608 128.078322 
L 107.272749 128.400981 
L 108.076891 128.357986 
L 108.478962 128.215643 
L 109.283103 128.174164 
L 110.087245 127.993719 
L 110.489315 127.711467 
L 110.891386 127.269967 
L 111.695528 126.986001 
L 113.303811 126.960518 
L 114.107952 126.975744 
L 116.520376 126.254456 
L 116.922447 126.433987 
L 117.324518 127.178022 
L 117.726589 127.651472 
L 118.128659 127.892979 
L 118.53073 127.988857 
L 118.932801 127.781993 
L 119.334872 127.348786 
L 120.139013 126.258182 
L 120.943155 125.893734 
L 121.747296 125.942234 
L 122.149367 125.38286 
L 123.355579 126.574393 
L 123.75765 126.698126 
L 124.963862 126.338466 
L 125.365933 125.717357 
L 125.768004 125.463823 
L 126.170074 124.816552 
L 126.572145 123.137797 
L 126.974216 122.254404 
L 127.376287 122.249546 
L 127.778357 122.073721 
L 128.180428 121.53416 
L 128.98457 119.96309 
L 129.38664 119.581637 
L 129.788711 119.522106 
L 130.190782 117.842577 
L 131.396994 106.439671 
L 131.799065 105.197555 
L 132.201136 106.184098 
L 132.603206 102.652729 
L 133.005277 94.639905 
L 133.407348 97.98287 
L 133.809419 109.914049 
L 134.211489 111.684499 
L 134.61356 116.763805 
L 136.221843 144.13803 
L 137.025985 164.073697 
L 137.428055 165.327731 
L 137.830126 155.228628 
L 138.232197 149.176434 
L 138.634267 145.790621 
L 139.438409 134.186342 
L 139.84048 128.275468 
L 140.644621 121.179837 
L 141.046692 120.39642 
L 141.448763 117.056707 
L 141.850833 116.191559 
L 142.654975 117.25681 
L 143.057046 116.018037 
L 143.459116 113.793142 
L 143.861187 112.402441 
L 144.263258 115.33879 
L 144.665329 119.273364 
L 145.46947 101.858674 
L 145.871541 104.102273 
L 146.273612 108.571081 
L 146.675682 109.902765 
L 147.077753 107.856523 
L 147.479824 108.715055 
L 147.881895 110.612505 
L 148.283965 110.680459 
L 148.686036 113.02004 
L 149.088107 113.263739 
L 149.490178 111.766535 
L 149.892248 106.088049 
L 150.294319 109.764046 
L 150.69639 111.845072 
L 151.098461 118.694261 
L 151.500531 120.398156 
L 151.902602 120.860685 
L 152.304673 119.110264 
L 153.108814 112.691492 
L 153.510885 110.761515 
L 153.912956 110.385695 
L 154.315027 112.759874 
L 154.717097 110.947052 
L 155.119168 108.010743 
L 156.32538 118.696939 
L 157.129522 121.012865 
L 157.531593 121.539571 
L 157.933663 122.45023 
L 158.335734 124.091929 
L 158.737805 123.36052 
L 159.139876 123.346584 
L 159.541946 123.726 
L 159.944017 123.869601 
L 160.346088 124.500995 
L 160.748159 124.161059 
L 161.150229 121.348705 
L 161.5523 120.53591 
L 161.954371 119.04962 
L 162.356442 121.046569 
L 162.758512 122.254206 
L 163.160583 120.986112 
L 163.562654 120.858934 
L 163.964724 121.601981 
L 164.366795 121.889506 
L 164.768866 120.830373 
L 165.170937 122.115136 
L 165.170937 122.115136 
" clip-path="url(#p8e2fd872ab)" style="fill: none; stroke: #cc6f47; stroke-width: 1.2; stroke-linecap: square"/>
   </g>
   <g id="line2d_22">
    <path d="M 172.006139 127.700097 
L 172.944304 130.01342 
L 173.078328 130.044446 
L 173.346375 129.749432 
L 173.614422 129.082485 
L 175.490753 122.731625 
L 175.892823 122.354702 
L 176.026847 122.367431 
L 176.428918 122.708721 
L 176.562941 122.506481 
L 176.696965 122.542257 
L 176.965012 122.040829 
L 177.63513 118.931308 
L 177.769153 118.925857 
L 178.171224 119.500032 
L 178.573295 121.130172 
L 178.975366 123.117498 
L 179.109389 123.284684 
L 179.243413 123.25298 
L 179.51146 122.75291 
L 180.181578 120.791897 
L 180.315601 120.805171 
L 180.851696 120.325324 
L 181.119743 119.19099 
L 181.38779 116.977746 
L 181.923884 109.26858 
L 182.728026 91.702242 
L 183.130097 82.161384 
L 183.26412 81.781619 
L 183.398144 81.739327 
L 183.532167 81.918931 
L 183.666191 82.735906 
L 183.934238 86.205082 
L 184.068262 86.167777 
L 184.336309 85.287515 
L 184.470333 85.639214 
L 184.73838 85.003285 
L 185.006427 84.360365 
L 185.274474 84.79602 
L 185.408498 85.154855 
L 185.542521 85.16125 
L 185.810568 85.600469 
L 186.078616 85.029914 
L 186.212639 84.747498 
L 186.61471 82.857971 
L 186.882757 82.365975 
L 187.150804 83.928799 
L 187.418851 85.859285 
L 187.686898 86.633707 
L 187.820922 86.773015 
L 187.954946 86.733364 
L 188.222993 86.137953 
L 188.759087 84.244719 
L 189.027134 84.05361 
L 189.295181 84.316351 
L 189.429205 84.63686 
L 189.831276 86.364367 
L 189.965299 86.172408 
L 190.36737 83.774697 
L 190.501394 83.805919 
L 190.769441 84.989105 
L 190.903464 84.668591 
L 191.037488 84.67433 
L 191.439559 85.243296 
L 191.975653 85.211942 
L 192.109677 85.0612 
L 192.377724 84.25458 
L 192.913818 81.435132 
L 193.047842 80.786469 
L 193.181865 80.787909 
L 193.449913 82.14214 
L 193.449913 82.14214 
" clip-path="url(#p8e2fd872ab)" style="fill: none; stroke: #5477c4; stroke-width: 1.2; stroke-linecap: square"/>
   </g>
   <g id="line2d_23">
    <path d="M 172.006139 127.367697 
L 172.140163 127.197935 
L 172.274187 127.305588 
L 172.810281 128.706375 
L 173.346375 130.464649 
L 173.748446 130.990212 
L 174.016493 130.974694 
L 174.28454 130.633887 
L 174.820635 129.469713 
L 175.222705 128.787013 
L 175.356729 128.778197 
L 175.624776 129.050106 
L 175.892823 129.48974 
L 176.16087 130.030103 
L 176.294894 130.511476 
L 176.562941 130.519474 
L 176.696965 130.718074 
L 177.233059 128.76894 
L 177.501106 129.308322 
L 177.63513 129.593834 
L 178.037201 129.631728 
L 178.573295 130.381937 
L 179.243413 130.832406 
L 179.51146 130.579911 
L 180.047554 129.774054 
L 180.181578 129.761378 
L 180.717672 130.547291 
L 180.985719 131.189132 
L 181.253767 132.055457 
L 181.521814 133.319353 
L 181.655837 133.685254 
L 181.789861 133.6146 
L 182.459979 131.252961 
L 182.594002 131.299925 
L 183.130097 136.304372 
L 183.26412 136.138817 
L 183.532167 135.243885 
L 184.068262 135.91857 
L 184.604356 138.298152 
L 184.73838 137.893994 
L 185.14045 133.217646 
L 185.408498 129.897704 
L 185.676545 126.145759 
L 185.810568 126.465175 
L 186.212639 129.141058 
L 186.748733 126.113621 
L 186.882757 126.248566 
L 187.284828 129.484066 
L 187.552875 130.334164 
L 187.686898 130.348678 
L 188.088969 129.90412 
L 188.222993 129.989639 
L 189.429205 132.18059 
L 189.697252 135.940135 
L 190.099323 144.004618 
L 190.233347 144.486791 
L 190.635417 147.940235 
L 190.769441 148.129136 
L 191.037488 147.618592 
L 191.305535 147.689387 
L 191.573582 148.012771 
L 191.975653 149.15351 
L 192.377724 151.259562 
L 192.779795 153.667045 
L 192.913818 153.867054 
L 193.047842 153.612425 
L 193.181865 153.757853 
L 193.449913 156.770241 
L 193.449913 156.770241 
" clip-path="url(#p8e2fd872ab)" style="fill: none; stroke: #cc6f47; stroke-width: 1.2; stroke-linecap: square"/>
   </g>
   <g id="line2d_24">
    <path d="M 200.151092 127.700097 
L 200.285115 127.767101 
L 200.419139 127.809057 
L 200.553162 127.936908 
L 200.687186 128.015782 
L 200.82121 128.307665 
L 200.955233 128.953575 
L 201.089257 129.668274 
L 201.22328 130.291998 
L 201.357304 130.869314 
L 201.491327 131.206972 
L 201.625351 131.188372 
L 201.759375 131.056932 
L 201.893398 130.91668 
L 202.027422 130.847361 
L 202.161445 130.821678 
L 202.295469 130.877364 
L 202.429493 130.968893 
L 202.563516 131.097641 
L 202.69754 131.244208 
L 202.831563 131.374189 
L 202.965587 131.474672 
L 203.09961 131.513887 
L 203.233634 131.466449 
L 203.367658 131.306812 
L 203.501681 131.192512 
L 203.635705 131.103486 
L 203.769728 131.002693 
L 203.903752 130.914583 
L 204.037775 130.850621 
L 204.171799 130.801393 
L 204.305823 130.749662 
L 204.439846 130.714566 
L 204.57387 130.702349 
L 204.707893 130.717548 
L 204.841917 130.750976 
L 204.975941 130.76269 
L 205.109964 130.766114 
L 205.243988 130.792854 
L 205.378011 131.127245 
L 205.512035 131.700586 
L 205.646058 132.338226 
L 205.780082 133.016246 
L 205.914106 133.594823 
L 206.048129 134.004701 
L 206.182153 134.293311 
L 206.316176 134.558287 
L 206.4502 134.883412 
L 206.584224 135.436895 
L 206.718247 136.301558 
L 206.852271 137.49603 
L 206.986294 139.107786 
L 207.120318 141.179207 
L 207.254341 143.523209 
L 207.388365 145.841577 
L 207.522389 148.063138 
L 207.656412 150.216866 
L 207.790436 152.404639 
L 207.924459 154.604358 
L 208.058483 156.46089 
L 208.192507 157.752992 
L 208.32653 158.907025 
L 208.460554 160.362854 
L 208.594577 162.455239 
L 208.728601 165.067698 
L 208.862624 167.845116 
L 208.996648 170.629901 
L 209.130672 173.360359 
L 209.264695 174.8403 
L 209.398719 174.174251 
L 209.532742 173.187377 
L 209.666766 171.823141 
L 209.80079 170.734928 
L 209.934813 170.491038 
L 210.068837 170.298963 
L 210.20286 170.270002 
L 210.336884 170.791874 
L 210.470907 172.228477 
L 210.604931 173.995138 
L 210.738955 176.265593 
L 210.872978 177.877144 
L 211.007002 178.685109 
L 211.141025 179.035885 
L 211.275049 179.035462 
L 211.409072 178.959751 
L 211.543096 178.842168 
L 211.67712 178.766815 
L 211.811143 178.701011 
L 211.945167 178.331939 
L 212.07919 177.300395 
L 212.213214 175.888234 
L 212.347238 174.338594 
L 212.481261 172.705953 
L 212.615285 171.081361 
" clip-path="url(#p8e2fd872ab)" style="fill: none; stroke: #5477c4; stroke-width: 1.2; stroke-linecap: square"/>
   </g>
   <g id="line2d_25">
    <path d="M 200.151092 127.367697 
L 200.285115 126.502935 
L 200.419139 125.853944 
L 200.553162 125.436741 
L 200.687186 125.137666 
L 200.82121 125.193993 
L 200.955233 125.387118 
L 201.089257 125.596874 
L 201.22328 125.674159 
L 201.357304 125.473428 
L 201.491327 125.084987 
L 201.625351 124.753174 
L 201.759375 124.518787 
L 201.893398 124.339218 
L 202.027422 124.170419 
L 202.161445 123.976481 
L 202.295469 123.752061 
L 202.429493 123.507114 
L 202.563516 123.238403 
L 202.69754 122.966959 
L 202.831563 122.706645 
L 202.965587 122.487426 
L 203.09961 122.344167 
L 203.233634 122.317992 
L 203.367658 122.381203 
L 203.501681 122.488273 
L 203.635705 122.589749 
L 203.769728 122.715897 
L 203.903752 122.822324 
L 204.037775 122.907519 
L 204.171799 122.995238 
L 204.305823 123.084834 
L 204.439846 123.159248 
L 204.57387 123.17266 
L 204.707893 123.100159 
L 204.841917 122.936947 
L 204.975941 122.668811 
L 205.109964 122.249583 
L 205.243988 121.857685 
L 205.378011 121.573999 
L 205.512035 121.565521 
L 205.646058 121.869964 
L 205.780082 122.229103 
L 205.914106 122.502174 
L 206.048129 122.663059 
L 206.182153 122.629972 
L 206.316176 122.304737 
L 206.4502 121.640123 
L 206.584224 120.731981 
L 206.718247 119.840817 
L 206.852271 119.569931 
L 206.986294 119.836907 
L 207.120318 120.436038 
L 207.254341 121.347818 
L 207.388365 122.393677 
L 207.522389 123.361734 
L 207.656412 124.147438 
L 207.790436 125.077356 
L 207.924459 126.03045 
L 208.058483 126.883069 
L 208.192507 127.948479 
L 208.32653 129.442429 
L 208.460554 131.288853 
L 208.594577 132.893201 
L 208.728601 133.947962 
L 208.862624 134.494599 
L 208.996648 134.665387 
L 209.130672 134.43813 
L 209.264695 134.532372 
L 209.398719 136.075316 
L 209.532742 137.898695 
L 209.666766 139.161669 
L 209.80079 138.988173 
L 209.934813 138.029369 
L 210.068837 135.619918 
L 210.20286 132.389378 
L 210.336884 129.707564 
L 210.470907 127.880018 
L 210.604931 126.998185 
L 210.738955 126.187375 
L 210.872978 125.737076 
L 211.007002 125.709108 
L 211.141025 125.98787 
L 211.275049 126.65281 
L 211.409072 127.712531 
L 211.543096 128.350411 
L 211.67712 128.518973 
L 211.811143 128.473817 
L 211.945167 128.315173 
L 212.07919 128.334915 
L 212.213214 128.187268 
L 212.347238 127.946366 
L 212.481261 127.818713 
L 212.615285 127.687209 
" clip-path="url(#p8e2fd872ab)" style="fill: none; stroke: #cc6f47; stroke-width: 1.2; stroke-linecap: square"/>
   </g>
   <g id="line2d_26">
    <path d="M 219.316464 127.700097 
L 219.450487 127.776635 
L 219.584511 127.782795 
L 219.718535 127.601832 
L 219.852558 127.370142 
L 219.986582 127.16614 
L 220.120605 127.016572 
L 220.254629 126.910281 
L 220.388652 126.820663 
L 220.522676 126.658197 
L 220.6567 126.409649 
L 220.790723 126.125767 
L 220.924747 125.805621 
L 221.05877 125.452339 
L 221.192794 125.070422 
L 221.326818 124.675608 
L 221.460841 124.283251 
L 221.594865 123.893865 
L 221.728888 123.532787 
L 221.862912 123.344506 
L 221.996935 123.22298 
L 222.130959 123.097887 
L 222.264983 123.002509 
L 222.399006 122.936453 
L 222.53303 122.901957 
L 222.667053 122.876396 
L 222.801077 122.921143 
L 222.935101 122.834949 
L 223.069124 122.899084 
L 223.203148 122.796932 
L 223.337171 122.774177 
L 223.471195 123.01165 
L 223.605218 122.914245 
L 223.739242 122.881463 
L 223.873266 122.681528 
" clip-path="url(#p8e2fd872ab)" style="fill: none; stroke: #5477c4; stroke-width: 1.2; stroke-linecap: square"/>
   </g>
   <g id="line2d_27">
    <path d="M 219.316464 127.367697 
L 219.450487 126.912183 
L 219.584511 126.856033 
L 219.718535 126.757665 
L 219.852558 126.668721 
L 219.986582 126.606181 
L 220.120605 126.61459 
L 220.254629 126.681499 
L 220.388652 126.784546 
L 220.522676 126.910475 
L 220.6567 127.033103 
L 220.790723 127.158466 
L 220.924747 127.263677 
L 221.05877 127.338245 
L 221.192794 127.383338 
L 221.326818 127.4012 
L 221.460841 127.400489 
L 221.594865 127.40432 
L 221.728888 127.435924 
L 221.862912 127.396237 
L 221.996935 127.322022 
L 222.130959 127.262758 
L 222.264983 127.250826 
L 222.399006 127.307539 
L 222.53303 127.442005 
L 222.667053 127.630232 
L 222.801077 127.927024 
L 222.935101 128.173722 
L 223.069124 128.605224 
L 223.203148 128.86252 
L 223.337171 129.100641 
L 223.471195 129.586362 
L 223.605218 129.797121 
L 223.739242 130.10239 
L 223.873266 130.093237 
" clip-path="url(#p8e2fd872ab)" style="fill: none; stroke: #cc6f47; stroke-width: 1.2; stroke-linecap: square"/>
   </g>
   <g id="line2d_28">
    <path d="M 230.574445 127.700097 
L 230.708468 127.796178 
L 230.842492 127.977582 
L 230.976515 128.322663 
L 231.110539 128.660486 
L 231.244563 128.878126 
L 231.378586 128.955932 
L 231.51261 128.884616 
L 231.646633 128.690079 
L 231.780657 128.412669 
L 231.914681 128.087249 
L 232.048704 127.738633 
L 232.182728 127.38075 
L 232.316751 127.017419 
L 232.450775 126.643875 
L 232.584798 126.245257 
L 232.718822 125.773372 
L 232.852846 125.220674 
L 232.986869 124.856242 
L 233.120893 124.518071 
L 233.254916 124.146211 
L 233.38894 123.800397 
L 233.522964 123.507965 
L 233.656987 123.278614 
L 233.791011 123.10871 
L 233.925034 122.988446 
L 234.059058 122.897805 
L 234.193081 122.840126 
L 234.327105 122.7487 
L 234.461129 122.847291 
L 234.595152 122.58346 
L 234.729176 122.134357 
L 234.863199 122.207294 
L 234.997223 122.186979 
" clip-path="url(#p8e2fd872ab)" style="fill: none; stroke: #5477c4; stroke-width: 1.2; stroke-linecap: square"/>
   </g>
   <g id="line2d_29">
    <path d="M 230.574445 127.367697 
L 230.708468 126.864395 
L 230.842492 126.597851 
L 230.976515 126.542413 
L 231.110539 126.570635 
L 231.244563 126.664572 
L 231.378586 126.79517 
L 231.51261 126.947175 
L 231.646633 127.093057 
L 231.780657 127.212632 
L 231.914681 127.296577 
L 232.048704 127.340943 
L 232.182728 127.348123 
L 232.316751 127.326398 
L 232.450775 127.282757 
L 232.584798 127.228373 
L 232.718822 127.179682 
L 232.852846 127.137314 
L 232.986869 127.019173 
L 233.120893 126.880972 
L 233.254916 126.732914 
L 233.38894 126.62163 
L 233.522964 126.57947 
L 233.656987 126.605456 
L 233.791011 126.691812 
L 233.925034 126.835464 
L 234.059058 127.024531 
L 234.193081 127.265125 
L 234.327105 127.496289 
L 234.461129 127.888301 
L 234.595152 127.95232 
L 234.729176 127.979945 
L 234.863199 128.359949 
L 234.997223 128.46296 
" clip-path="url(#p8e2fd872ab)" style="fill: none; stroke: #cc6f47; stroke-width: 1.2; stroke-linecap: square"/>
   </g>
   <g id="line2d_30">
    <path d="M 241.698402 127.700097 
L 241.832426 127.807069 
L 241.966449 128.069819 
L 242.100473 128.429275 
L 242.234496 128.80878 
L 242.36852 129.111094 
L 242.502544 129.285934 
L 242.636567 129.315785 
L 242.770591 129.219754 
L 242.904614 129.028107 
L 243.038638 128.765241 
L 243.172661 128.45291 
L 243.306685 128.109051 
L 243.440709 127.741986 
L 243.574732 127.35204 
L 243.708756 126.930537 
L 243.842779 126.448512 
L 243.976803 125.850157 
L 244.110826 125.382697 
" clip-path="url(#p8e2fd872ab)" style="fill: none; stroke: #5477c4; stroke-width: 1.2; stroke-linecap: square"/>
   </g>
   <g id="line2d_31">
    <path d="M 241.698402 127.367697 
L 241.832426 126.87351 
L 241.966449 126.653176 
L 242.100473 126.652058 
L 242.234496 126.662608 
L 242.36852 126.686138 
L 242.502544 126.752277 
L 242.636567 126.853678 
L 242.770591 126.972109 
L 242.904614 127.084151 
L 243.038638 127.177822 
L 243.172661 127.247465 
L 243.306685 127.289728 
L 243.440709 127.305825 
L 243.574732 127.300616 
L 243.708756 127.280414 
L 243.842779 127.257118 
L 243.976803 127.240617 
L 244.110826 127.150817 
" clip-path="url(#p8e2fd872ab)" style="fill: none; stroke: #cc6f47; stroke-width: 1.2; stroke-linecap: square"/>
   </g>
   <g id="line2d_32">
    <path d="M 250.812006 127.700097 
L 252.688336 127.480141 
L 254.564666 123.625689 
L 256.440996 120.772501 
L 258.317326 125.055663 
L 260.193656 124.60275 
L 262.069986 126.889087 
L 263.946317 124.939445 
L 265.822647 125.53701 
L 267.698977 129.971761 
L 269.575307 128.249389 
L 271.451637 125.869568 
L 273.327967 128.497552 
L 275.204297 126.213413 
L 277.080628 127.373221 
L 278.956958 129.449087 
L 280.833288 125.807573 
L 282.709618 127.338106 
L 284.585948 129.76032 
L 286.462278 127.020079 
L 288.338609 128.001989 
L 290.214939 130.029535 
L 292.091269 126.551579 
L 293.967599 128.224079 
L 295.843929 128.628898 
L 297.720259 125.808926 
L 299.596589 128.353953 
L 301.47292 128.221756 
L 303.34925 126.999855 
L 305.22558 129.519174 
L 307.10191 127.781657 
L 308.97824 126.742388 
L 310.85457 128.594659 
L 312.7309 125.689139 
L 314.607231 126.620536 
L 316.483561 128.630907 
L 318.359891 125.861905 
L 320.236221 126.417379 
L 322.112551 129.254819 
L 323.988881 126.55713 
L 325.865211 127.558825 
L 327.741542 129.073594 
L 329.617872 125.755014 
L 331.494202 128.72964 
L 333.370532 128.64287 
L 335.246862 125.472853 
L 337.123192 127.657964 
L 338.999523 127.122306 
L 340.875853 125.693497 
L 342.752183 128.98887 
L 344.628513 126.499567 
L 346.504843 126.550739 
L 348.381173 129.178336 
L 350.257503 126.189796 
L 354.010164 130.272089 
L 355.886494 126.326466 
L 357.762824 126.686611 
L 359.639154 128.857469 
L 361.515484 125.828222 
L 363.391814 127.773688 
L 365.268145 128.678406 
L 367.144475 125.816228 
L 369.020805 128.344087 
L 370.897135 128.213534 
L 372.773465 125.841849 
L 374.649795 128.640528 
L 376.526125 127.517123 
L 378.402456 125.992694 
L 380.278786 128.873526 
L 382.155116 126.655073 
L 384.031446 126.259727 
L 385.907776 129.068034 
L 387.784106 126.256247 
L 389.660436 126.601389 
L 391.536767 129.077758 
L 393.413097 125.989323 
L 395.289427 127.14619 
L 397.165757 128.893061 
L 399.042087 125.687531 
L 400.918417 126.274441 
L 402.794748 127.407432 
L 404.671078 125.355873 
L 406.547408 129.227637 
L 408.423738 128.479123 
L 410.300068 124.202626 
L 412.176398 125.806357 
L 414.052728 126.017498 
L 415.929059 126.508297 
L 417.805389 128.71275 
L 419.681719 126.27908 
L 421.558049 126.648365 
L 423.434379 129.165462 
L 425.310709 126.566847 
L 427.187039 127.492998 
L 429.06337 129.48607 
L 430.9397 126.478178 
L 432.81603 127.128136 
L 434.69236 128.97623 
L 436.56869 126.489089 
L 438.44502 128.120995 
L 440.32135 129.526479 
L 442.197681 126.959339 
L 444.074011 129.291988 
L 445.950341 128.083438 
L 447.826671 125.345137 
L 449.703001 127.669701 
L 451.579331 126.309552 
L 453.455661 125.625763 
L 455.331992 129.223245 
L 457.208322 126.981412 
L 459.084652 126.175467 
L 460.960982 129.210613 
L 462.837312 126.360669 
L 464.713642 126.784913 
L 466.589973 128.741826 
L 468.466303 125.801348 
L 470.342633 126.190708 
L 472.218963 128.819659 
L 474.095293 126.228639 
L 475.971623 127.678111 
L 477.847953 128.319418 
L 479.724284 125.989818 
L 481.600614 127.95323 
L 483.476944 127.933951 
L 485.353274 125.98341 
L 487.229604 128.198976 
L 489.105934 127.337476 
L 490.982264 125.988215 
L 492.858595 127.143788 
L 494.734925 131.001372 
L 496.611255 128.541791 
L 498.487585 130.116325 
L 500.363915 127.086385 
L 502.240245 127.583025 
L 504.116575 128.284039 
L 505.992906 125.794698 
L 507.869236 127.176652 
L 509.745566 129.254384 
L 511.621896 125.565208 
L 513.498226 128.650769 
L 515.374556 130.152321 
L 517.250886 126.832185 
L 519.127217 129.578929 
L 521.003547 129.431821 
L 522.879877 126.306676 
L 524.756207 129.948112 
L 526.632537 129.071677 
L 528.508867 126.490054 
L 530.385198 130.135143 
L 532.261528 128.253906 
L 534.137858 127.795134 
L 536.014188 129.271189 
L 537.890518 125.331653 
L 539.766848 124.701754 
L 541.643178 128.47893 
L 543.519509 125.529964 
L 545.395839 126.611502 
L 547.272169 129.550789 
L 549.148499 126.12522 
L 551.024829 127.425803 
L 552.901159 129.133949 
L 554.777489 125.899283 
L 556.65382 128.270397 
L 558.53015 129.537527 
L 560.40648 128.698698 
L 562.28281 128.684531 
L 564.15914 128.031599 
L 566.03547 129.365706 
L 567.9118 122.388085 
L 569.788131 126.833681 
L 571.664461 118.183524 
L 573.540791 89.9595 
L 575.417121 83.555467 
L 577.293451 166.284257 
L 579.169781 169.392008 
L 581.046111 182.353113 
L 582.922442 77.540016 
L 584.798772 173.8734 
L 586.675102 172.073205 
L 588.551432 171.480165 
L 590.427762 169.871248 
L 594.180423 175.590222 
L 596.056753 170.704954 
L 597.933083 171.184735 
L 599.809413 169.167065 
L 601.685743 172.808036 
L 603.562073 172.566783 
L 605.438403 161.847979 
L 605.438403 161.847979 
" clip-path="url(#p8e2fd872ab)" style="fill: none; stroke: #5477c4; stroke-width: 1.2; stroke-linecap: square"/>
   </g>
   <g id="line2d_33">
    <path d="M 250.812006 127.367697 
L 252.688336 127.239921 
L 254.564666 128.867044 
L 256.440996 124.975702 
L 258.317326 128.002588 
L 260.193656 128.69121 
L 262.069986 127.740615 
L 263.946317 128.5134 
L 265.822647 128.218942 
L 267.698977 128.330162 
L 269.575307 128.170672 
L 271.451637 128.734813 
L 273.327967 127.663679 
L 275.204297 127.861322 
L 277.080628 126.887671 
L 278.956958 126.462544 
L 280.833288 126.451326 
L 282.709618 127.642039 
L 284.585948 127.344401 
L 286.462278 127.602165 
L 288.338609 127.992272 
L 290.214939 128.205217 
L 292.091269 128.257837 
L 293.967599 128.149475 
L 295.843929 127.868087 
L 297.720259 127.095293 
L 299.596589 125.444999 
L 301.47292 125.303284 
L 303.34925 125.95279 
L 305.22558 126.184414 
L 307.10191 126.750424 
L 308.97824 127.499454 
L 310.85457 127.183284 
L 312.7309 126.009852 
L 314.607231 128.458558 
L 316.483561 128.015352 
L 318.359891 126.813555 
L 320.236221 127.522041 
L 322.112551 128.460097 
L 323.988881 127.110498 
L 325.865211 127.523725 
L 327.741542 126.697044 
L 329.617872 126.651821 
L 331.494202 128.311788 
L 333.370532 126.688798 
L 335.246862 126.735139 
L 337.123192 128.841338 
L 340.875853 125.806299 
L 342.752183 126.119782 
L 344.628513 126.565366 
L 346.504843 124.355383 
L 348.381173 124.386326 
L 350.257503 125.765376 
L 352.133834 127.469845 
L 354.010164 126.999674 
L 355.886494 126.392516 
L 357.762824 126.558706 
L 359.639154 126.268687 
L 361.515484 126.633241 
L 363.391814 126.732491 
L 365.268145 126.302146 
L 367.144475 126.698951 
L 369.020805 126.669863 
L 370.897135 126.252634 
L 372.773465 126.748515 
L 376.526125 126.242595 
L 378.402456 126.774027 
L 380.278786 126.464771 
L 382.155116 126.326091 
L 384.031446 126.762012 
L 385.907776 126.42201 
L 387.784106 126.40012 
L 389.660436 126.741707 
L 391.536767 126.385712 
L 393.413097 126.476446 
L 395.289427 126.987891 
L 397.165757 127.80227 
L 399.042087 127.625067 
L 400.918417 127.881852 
L 402.794748 126.214217 
L 404.671078 127.144723 
L 406.547408 128.822429 
L 408.423738 127.677389 
L 410.300068 127.430324 
L 412.176398 128.625812 
L 414.052728 127.178421 
L 415.929059 127.304137 
L 417.805389 126.144419 
L 419.681719 126.01948 
L 421.558049 125.667513 
L 423.434379 125.906826 
L 425.310709 126.827671 
L 427.187039 127.003083 
L 429.06337 126.941738 
L 430.9397 126.736678 
L 432.81603 127.02663 
L 434.69236 126.787861 
L 436.56869 127.679972 
L 440.32135 127.17526 
L 442.197681 127.984758 
L 444.074011 129.380494 
L 445.950341 128.053198 
L 447.826671 128.354982 
L 449.703001 127.177079 
L 451.579331 127.741875 
L 453.455661 128.167377 
L 455.331992 128.175155 
L 457.208322 127.407678 
L 459.084652 128.058659 
L 460.960982 128.156869 
L 462.837312 127.621922 
L 464.713642 128.882422 
L 468.466303 127.910251 
L 470.342633 128.743834 
L 474.095293 128.671709 
L 475.971623 129.528547 
L 477.847953 128.768749 
L 479.724284 128.824352 
L 481.600614 129.256673 
L 483.476944 128.643605 
L 485.353274 129.027441 
L 487.229604 129.066361 
L 489.105934 128.503504 
L 490.982264 129.242381 
L 492.858595 127.47475 
L 494.734925 118.54195 
L 496.611255 119.531927 
L 498.487585 123.353408 
L 500.363915 128.128987 
L 502.240245 127.199769 
L 504.116575 127.917438 
L 507.869236 125.079352 
L 509.745566 124.759231 
L 511.621896 125.921707 
L 513.498226 126.198242 
L 515.374556 125.638828 
L 517.250886 125.883841 
L 519.127217 126.505759 
L 521.003547 126.478875 
L 522.879877 126.635404 
L 524.756207 126.964726 
L 526.632537 126.6103 
L 528.508867 126.456142 
L 530.385198 126.898854 
L 532.261528 127.084151 
L 536.014188 128.02813 
L 537.890518 127.188996 
L 539.766848 127.166048 
L 541.643178 127.808011 
L 543.519509 127.379507 
L 547.272169 128.282272 
L 549.148499 127.959456 
L 552.901159 128.186223 
L 554.777489 127.981611 
L 556.65382 127.940032 
L 558.53015 126.929936 
L 560.40648 124.231078 
L 562.28281 122.295634 
L 564.15914 121.355927 
L 566.03547 124.066401 
L 569.788131 118.206331 
L 571.664461 116.777401 
L 573.540791 117.765107 
L 575.417121 144.859294 
L 577.293451 165.303386 
L 579.169781 152.204073 
L 581.046111 161.533705 
L 582.922442 165.487307 
L 584.798772 166.844045 
L 586.675102 135.838977 
L 588.551432 127.541492 
L 590.427762 127.98161 
L 592.304092 130.044416 
L 594.180423 127.838651 
L 596.056753 130.873973 
L 597.933083 138.456077 
L 599.809413 134.768126 
L 601.685743 132.34629 
L 603.562073 145.222356 
L 605.438403 168.15846 
L 605.438403 168.15846 
" clip-path="url(#p8e2fd872ab)" style="fill: none; stroke: #cc6f47; stroke-width: 1.2; stroke-linecap: square"/>
   </g>
   <g id="line2d_34">
    <path d="M 55.345313 110.229201 
L 631.633312 110.229201 
" clip-path="url(#p8e2fd872ab)" style="fill: none; stroke-dasharray: 3.33,1.44; stroke-dashoffset: 0; stroke: #1f2430; stroke-width: 0.9"/>
   </g>
   <g id="line2d_35">
    <path d="M 55.345313 145.170995 
L 631.633312 145.170995 
" clip-path="url(#p8e2fd872ab)" style="fill: none; stroke-dasharray: 3.33,1.44; stroke-dashoffset: 0; stroke: #1f2430; stroke-width: 0.9"/>
   </g>
   <g id="patch_3">
    <path d="M 55.345313 195.392348 
L 55.345313 71.928 
" style="fill: none; stroke: #d7dbe7; stroke-width: 0.8; stroke-linejoin: miter; stroke-linecap: square"/>
   </g>
   <g id="patch_4">
    <path d="M 55.345313 195.392348 
L 631.633312 195.392348 
" style="fill: none; stroke: #d7dbe7; stroke-width: 0.8; stroke-linejoin: miter; stroke-linecap: square"/>
   </g>
   <g id="text_7">
    <!--  soglia 35 deg -->
    <g style="fill: #1f2430" transform="translate(547.786771 108.523857) scale(0.082 -0.082)">
     <defs>
      <path id="DejaVuSans-73" d="M 2834 3397 
L 2834 2853 
Q 2591 2978 2328 3040 
Q 2066 3103 1784 3103 
Q 1356 3103 1142 2972 
Q 928 2841 928 2578 
Q 928 2378 1081 2264 
Q 1234 2150 1697 2047 
L 1894 2003 
Q 2506 1872 2764 1633 
Q 3022 1394 3022 966 
Q 3022 478 2636 193 
Q 2250 -91 1575 -91 
Q 1294 -91 989 -36 
Q 684 19 347 128 
L 347 722 
Q 666 556 975 473 
Q 1284 391 1588 391 
Q 1994 391 2212 530 
Q 2431 669 2431 922 
Q 2431 1156 2273 1281 
Q 2116 1406 1581 1522 
L 1381 1569 
Q 847 1681 609 1914 
Q 372 2147 372 2553 
Q 372 3047 722 3315 
Q 1072 3584 1716 3584 
Q 2034 3584 2315 3537 
Q 2597 3491 2834 3397 
z
" transform="scale(0.015625)"/>
      <path id="DejaVuSans-69" d="M 603 3500 
L 1178 3500 
L 1178 0 
L 603 0 
L 603 3500 
z
M 603 4863 
L 1178 4863 
L 1178 4134 
L 603 4134 
L 603 4863 
z
" transform="scale(0.015625)"/>
      <path id="DejaVuSans-61" d="M 2194 1759 
Q 1497 1759 1228 1600 
Q 959 1441 959 1056 
Q 959 750 1161 570 
Q 1363 391 1709 391 
Q 2188 391 2477 730 
Q 2766 1069 2766 1631 
L 2766 1759 
L 2194 1759 
z
M 3341 1997 
L 3341 0 
L 2766 0 
L 2766 531 
Q 2569 213 2275 61 
Q 1981 -91 1556 -91 
Q 1019 -91 701 211 
Q 384 513 384 1019 
Q 384 1609 779 1909 
Q 1175 2209 1959 2209 
L 2766 2209 
L 2766 2266 
Q 2766 2663 2505 2880 
Q 2244 3097 1772 3097 
Q 1472 3097 1187 3025 
Q 903 2953 641 2809 
L 641 3341 
Q 956 3463 1253 3523 
Q 1550 3584 1831 3584 
Q 2591 3584 2966 3190 
Q 3341 2797 3341 1997 
z
" transform="scale(0.015625)"/>
      <path id="DejaVuSans-33" d="M 2597 2516 
Q 3050 2419 3304 2112 
Q 3559 1806 3559 1356 
Q 3559 666 3084 287 
Q 2609 -91 1734 -91 
Q 1441 -91 1130 -33 
Q 819 25 488 141 
L 488 750 
Q 750 597 1062 519 
Q 1375 441 1716 441 
Q 2309 441 2620 675 
Q 2931 909 2931 1356 
Q 2931 1769 2642 2001 
Q 2353 2234 1838 2234 
L 1294 2234 
L 1294 2753 
L 1863 2753 
Q 2328 2753 2575 2939 
Q 2822 3125 2822 3475 
Q 2822 3834 2567 4026 
Q 2313 4219 1838 4219 
Q 1578 4219 1281 4162 
Q 984 4106 628 3988 
L 628 4550 
Q 988 4650 1302 4700 
Q 1616 4750 1894 4750 
Q 2613 4750 3031 4423 
Q 3450 4097 3450 3541 
Q 3450 3153 3228 2886 
Q 3006 2619 2597 2516 
z
" transform="scale(0.015625)"/>
     </defs>
     <use xlink:href="#DejaVuSans-20"/>
     <use xlink:href="#DejaVuSans-73" x="31.787109"/>
     <use xlink:href="#DejaVuSans-6f" x="83.886719"/>
     <use xlink:href="#DejaVuSans-67" x="145.068359"/>
     <use xlink:href="#DejaVuSans-6c" x="208.544922"/>
     <use xlink:href="#DejaVuSans-69" x="236.328125"/>
     <use xlink:href="#DejaVuSans-61" x="264.111328"/>
     <use xlink:href="#DejaVuSans-20" x="325.390625"/>
     <use xlink:href="#DejaVuSans-33" x="357.177734"/>
     <use xlink:href="#DejaVuSans-35" x="420.800781"/>
     <use xlink:href="#DejaVuSans-20" x="484.423828"/>
     <use xlink:href="#DejaVuSans-64" x="516.210938"/>
     <use xlink:href="#DejaVuSans-65" x="579.6875"/>
     <use xlink:href="#DejaVuSans-67" x="641.210938"/>
    </g>
   </g>
   <g id="legend_1">
    <g id="line2d_36">
     <path d="M 64.345313 85.026437 
L 74.345313 85.026437 
L 84.345313 85.026437 
" style="fill: none; stroke: #5477c4; stroke-width: 1.2; stroke-linecap: square"/>
    </g>
    <g id="text_8">
     <!-- roll -->
     <g style="fill: #1f2430" transform="translate(92.345313 88.526437) scale(0.1 -0.1)">
      <defs>
       <path id="DejaVuSans-72" d="M 2631 2963 
Q 2534 3019 2420 3045 
Q 2306 3072 2169 3072 
Q 1681 3072 1420 2755 
Q 1159 2438 1159 1844 
L 1159 0 
L 581 0 
L 581 3500 
L 1159 3500 
L 1159 2956 
Q 1341 3275 1631 3429 
Q 1922 3584 2338 3584 
Q 2397 3584 2469 3576 
Q 2541 3569 2628 3553 
L 2631 2963 
z
" transform="scale(0.015625)"/>
      </defs>
      <use xlink:href="#DejaVuSans-72"/>
      <use xlink:href="#DejaVuSans-6f" x="38.863281"/>
      <use xlink:href="#DejaVuSans-6c" x="100.044922"/>
      <use xlink:href="#DejaVuSans-6c" x="127.828125"/>
     </g>
    </g>
    <g id="line2d_37">
     <path d="M 127.90625 85.026437 
L 137.90625 85.026437 
L 147.90625 85.026437 
" style="fill: none; stroke: #cc6f47; stroke-width: 1.2; stroke-linecap: square"/>
    </g>
    <g id="text_9">
     <!-- pitch -->
     <g style="fill: #1f2430" transform="translate(155.90625 88.526437) scale(0.1 -0.1)">
      <defs>
       <path id="DejaVuSans-70" d="M 1159 525 
L 1159 -1331 
L 581 -1331 
L 581 3500 
L 1159 3500 
L 1159 2969 
Q 1341 3281 1617 3432 
Q 1894 3584 2278 3584 
Q 2916 3584 3314 3078 
Q 3713 2572 3713 1747 
Q 3713 922 3314 415 
Q 2916 -91 2278 -91 
Q 1894 -91 1617 61 
Q 1341 213 1159 525 
z
M 3116 1747 
Q 3116 2381 2855 2742 
Q 2594 3103 2138 3103 
Q 1681 3103 1420 2742 
Q 1159 2381 1159 1747 
Q 1159 1113 1420 752 
Q 1681 391 2138 391 
Q 2594 391 2855 752 
Q 3116 1113 3116 1747 
z
" transform="scale(0.015625)"/>
       <path id="DejaVuSans-74" d="M 1172 4494 
L 1172 3500 
L 2356 3500 
L 2356 3053 
L 1172 3053 
L 1172 1153 
Q 1172 725 1289 603 
Q 1406 481 1766 481 
L 2356 481 
L 2356 0 
L 1766 0 
Q 1100 0 847 248 
Q 594 497 594 1153 
L 594 3053 
L 172 3053 
L 172 3500 
L 594 3500 
L 594 4494 
L 1172 4494 
z
" transform="scale(0.015625)"/>
       <path id="DejaVuSans-63" d="M 3122 3366 
L 3122 2828 
Q 2878 2963 2633 3030 
Q 2388 3097 2138 3097 
Q 1578 3097 1268 2742 
Q 959 2388 959 1747 
Q 959 1106 1268 751 
Q 1578 397 2138 397 
Q 2388 397 2633 464 
Q 2878 531 3122 666 
L 3122 134 
Q 2881 22 2623 -34 
Q 2366 -91 2075 -91 
Q 1284 -91 818 406 
Q 353 903 353 1747 
Q 353 2603 823 3093 
Q 1294 3584 2113 3584 
Q 2378 3584 2631 3529 
Q 2884 3475 3122 3366 
z
" transform="scale(0.015625)"/>
       <path id="DejaVuSans-68" d="M 3513 2113 
L 3513 0 
L 2938 0 
L 2938 2094 
Q 2938 2591 2744 2837 
Q 2550 3084 2163 3084 
Q 1697 3084 1428 2787 
Q 1159 2491 1159 1978 
L 1159 0 
L 581 0 
L 581 4863 
L 1159 4863 
L 1159 2956 
Q 1366 3272 1645 3428 
Q 1925 3584 2291 3584 
Q 2894 3584 3203 3211 
Q 3513 2838 3513 2113 
z
" transform="scale(0.015625)"/>
      </defs>
      <use xlink:href="#DejaVuSans-70"/>
      <use xlink:href="#DejaVuSans-69" x="63.476562"/>
      <use xlink:href="#DejaVuSans-74" x="91.259766"/>
      <use xlink:href="#DejaVuSans-63" x="130.46875"/>
      <use xlink:href="#DejaVuSans-68" x="185.449219"/>
     </g>
    </g>
   </g>
  </g>
  <g id="axes_2">
   <g id="patch_5">
    <path d="M 55.345313 355.896 
L 631.633312 355.896 
L 631.633312 232.431652 
L 55.345313 232.431652 
z
" style="fill: #ffffff"/>
   </g>
   <g id="matplotlib.axis_3">
    <g id="xtick_10">
     <g id="line2d_38">
      <g>
       <use xlink:href="#m644ccd13af" x="81.540222" y="355.896" style="fill: #6f768a; stroke: #6f768a; stroke-width: 0.8"/>
      </g>
     </g>
     <g id="text_10">
      <!-- 0 -->
      <g style="fill: #6f768a" transform="translate(78.358972 370.494437) scale(0.1 -0.1)">
       <use xlink:href="#DejaVuSans-30"/>
      </g>
     </g>
    </g>
    <g id="xtick_11">
     <g id="line2d_39">
      <g>
       <use xlink:href="#m644ccd13af" x="148.552013" y="355.896" style="fill: #6f768a; stroke: #6f768a; stroke-width: 0.8"/>
      </g>
     </g>
     <g id="text_11">
      <!-- 10 -->
      <g style="fill: #6f768a" transform="translate(142.189513 370.494437) scale(0.1 -0.1)">
       <use xlink:href="#DejaVuSans-31"/>
       <use xlink:href="#DejaVuSans-30" x="63.623047"/>
      </g>
     </g>
    </g>
    <g id="xtick_12">
     <g id="line2d_40">
      <g>
       <use xlink:href="#m644ccd13af" x="215.563804" y="355.896" style="fill: #6f768a; stroke: #6f768a; stroke-width: 0.8"/>
      </g>
     </g>
     <g id="text_12">
      <!-- 20 -->
      <g style="fill: #6f768a" transform="translate(209.201304 370.494437) scale(0.1 -0.1)">
       <defs>
        <path id="DejaVuSans-32" d="M 1228 531 
L 3431 531 
L 3431 0 
L 469 0 
L 469 531 
Q 828 903 1448 1529 
Q 2069 2156 2228 2338 
Q 2531 2678 2651 2914 
Q 2772 3150 2772 3378 
Q 2772 3750 2511 3984 
Q 2250 4219 1831 4219 
Q 1534 4219 1204 4116 
Q 875 4013 500 3803 
L 500 4441 
Q 881 4594 1212 4672 
Q 1544 4750 1819 4750 
Q 2544 4750 2975 4387 
Q 3406 4025 3406 3419 
Q 3406 3131 3298 2873 
Q 3191 2616 2906 2266 
Q 2828 2175 2409 1742 
Q 1991 1309 1228 531 
z
" transform="scale(0.015625)"/>
       </defs>
       <use xlink:href="#DejaVuSans-32"/>
       <use xlink:href="#DejaVuSans-30" x="63.623047"/>
      </g>
     </g>
    </g>
    <g id="xtick_13">
     <g id="line2d_41">
      <g>
       <use xlink:href="#m644ccd13af" x="282.575595" y="355.896" style="fill: #6f768a; stroke: #6f768a; stroke-width: 0.8"/>
      </g>
     </g>
     <g id="text_13">
      <!-- 30 -->
      <g style="fill: #6f768a" transform="translate(276.213095 370.494437) scale(0.1 -0.1)">
       <use xlink:href="#DejaVuSans-33"/>
       <use xlink:href="#DejaVuSans-30" x="63.623047"/>
      </g>
     </g>
    </g>
    <g id="xtick_14">
     <g id="line2d_42">
      <g>
       <use xlink:href="#m644ccd13af" x="349.587385" y="355.896" style="fill: #6f768a; stroke: #6f768a; stroke-width: 0.8"/>
      </g>
     </g>
     <g id="text_14">
      <!-- 40 -->
      <g style="fill: #6f768a" transform="translate(343.224885 370.494437) scale(0.1 -0.1)">
       <defs>
        <path id="DejaVuSans-34" d="M 2419 4116 
L 825 1625 
L 2419 1625 
L 2419 4116 
z
M 2253 4666 
L 3047 4666 
L 3047 1625 
L 3713 1625 
L 3713 1100 
L 3047 1100 
L 3047 0 
L 2419 0 
L 2419 1100 
L 313 1100 
L 313 1709 
L 2253 4666 
z
" transform="scale(0.015625)"/>
       </defs>
       <use xlink:href="#DejaVuSans-34"/>
       <use xlink:href="#DejaVuSans-30" x="63.623047"/>
      </g>
     </g>
    </g>
    <g id="xtick_15">
     <g id="line2d_43">
      <g>
       <use xlink:href="#m644ccd13af" x="416.599176" y="355.896" style="fill: #6f768a; stroke: #6f768a; stroke-width: 0.8"/>
      </g>
     </g>
     <g id="text_15">
      <!-- 50 -->
      <g style="fill: #6f768a" transform="translate(410.236676 370.494437) scale(0.1 -0.1)">
       <use xlink:href="#DejaVuSans-35"/>
       <use xlink:href="#DejaVuSans-30" x="63.623047"/>
      </g>
     </g>
    </g>
    <g id="xtick_16">
     <g id="line2d_44">
      <g>
       <use xlink:href="#m644ccd13af" x="483.610967" y="355.896" style="fill: #6f768a; stroke: #6f768a; stroke-width: 0.8"/>
      </g>
     </g>
     <g id="text_16">
      <!-- 60 -->
      <g style="fill: #6f768a" transform="translate(477.248467 370.494437) scale(0.1 -0.1)">
       <defs>
        <path id="DejaVuSans-36" d="M 2113 2584 
Q 1688 2584 1439 2293 
Q 1191 2003 1191 1497 
Q 1191 994 1439 701 
Q 1688 409 2113 409 
Q 2538 409 2786 701 
Q 3034 994 3034 1497 
Q 3034 2003 2786 2293 
Q 2538 2584 2113 2584 
z
M 3366 4563 
L 3366 3988 
Q 3128 4100 2886 4159 
Q 2644 4219 2406 4219 
Q 1781 4219 1451 3797 
Q 1122 3375 1075 2522 
Q 1259 2794 1537 2939 
Q 1816 3084 2150 3084 
Q 2853 3084 3261 2657 
Q 3669 2231 3669 1497 
Q 3669 778 3244 343 
Q 2819 -91 2113 -91 
Q 1303 -91 875 529 
Q 447 1150 447 2328 
Q 447 3434 972 4092 
Q 1497 4750 2381 4750 
Q 2619 4750 2861 4703 
Q 3103 4656 3366 4563 
z
" transform="scale(0.015625)"/>
       </defs>
       <use xlink:href="#DejaVuSans-36"/>
       <use xlink:href="#DejaVuSans-30" x="63.623047"/>
      </g>
     </g>
    </g>
    <g id="xtick_17">
     <g id="line2d_45">
      <g>
       <use xlink:href="#m644ccd13af" x="550.622758" y="355.896" style="fill: #6f768a; stroke: #6f768a; stroke-width: 0.8"/>
      </g>
     </g>
     <g id="text_17">
      <!-- 70 -->
      <g style="fill: #6f768a" transform="translate(544.260258 370.494437) scale(0.1 -0.1)">
       <defs>
        <path id="DejaVuSans-37" d="M 525 4666 
L 3525 4666 
L 3525 4397 
L 1831 0 
L 1172 0 
L 2766 4134 
L 525 4134 
L 525 4666 
z
" transform="scale(0.015625)"/>
       </defs>
       <use xlink:href="#DejaVuSans-37"/>
       <use xlink:href="#DejaVuSans-30" x="63.623047"/>
      </g>
     </g>
    </g>
    <g id="xtick_18">
     <g id="line2d_46">
      <g>
       <use xlink:href="#m644ccd13af" x="617.634549" y="355.896" style="fill: #6f768a; stroke: #6f768a; stroke-width: 0.8"/>
      </g>
     </g>
     <g id="text_18">
      <!-- 80 -->
      <g style="fill: #6f768a" transform="translate(611.272049 370.494437) scale(0.1 -0.1)">
       <defs>
        <path id="DejaVuSans-38" d="M 2034 2216 
Q 1584 2216 1326 1975 
Q 1069 1734 1069 1313 
Q 1069 891 1326 650 
Q 1584 409 2034 409 
Q 2484 409 2743 651 
Q 3003 894 3003 1313 
Q 3003 1734 2745 1975 
Q 2488 2216 2034 2216 
z
M 1403 2484 
Q 997 2584 770 2862 
Q 544 3141 544 3541 
Q 544 4100 942 4425 
Q 1341 4750 2034 4750 
Q 2731 4750 3128 4425 
Q 3525 4100 3525 3541 
Q 3525 3141 3298 2862 
Q 3072 2584 2669 2484 
Q 3125 2378 3379 2068 
Q 3634 1759 3634 1313 
Q 3634 634 3220 271 
Q 2806 -91 2034 -91 
Q 1263 -91 848 271 
Q 434 634 434 1313 
Q 434 1759 690 2068 
Q 947 2378 1403 2484 
z
M 1172 3481 
Q 1172 3119 1398 2916 
Q 1625 2713 2034 2713 
Q 2441 2713 2670 2916 
Q 2900 3119 2900 3481 
Q 2900 3844 2670 4047 
Q 2441 4250 2034 4250 
Q 1625 4250 1398 4047 
Q 1172 3844 1172 3481 
z
" transform="scale(0.015625)"/>
       </defs>
       <use xlink:href="#DejaVuSans-38"/>
       <use xlink:href="#DejaVuSans-30" x="63.623047"/>
      </g>
     </g>
    </g>
    <g id="text_19">
     <!-- Tempo relativo dei segmenti registrati (s) -->
     <g style="fill: #1f2430" transform="translate(240.236187 384.172562) scale(0.1 -0.1)">
      <defs>
       <path id="DejaVuSans-54" d="M -19 4666 
L 3928 4666 
L 3928 4134 
L 2272 4134 
L 2272 0 
L 1638 0 
L 1638 4134 
L -19 4134 
L -19 4666 
z
" transform="scale(0.015625)"/>
       <path id="DejaVuSans-6d" d="M 3328 2828 
Q 3544 3216 3844 3400 
Q 4144 3584 4550 3584 
Q 5097 3584 5394 3201 
Q 5691 2819 5691 2113 
L 5691 0 
L 5113 0 
L 5113 2094 
Q 5113 2597 4934 2840 
Q 4756 3084 4391 3084 
Q 3944 3084 3684 2787 
Q 3425 2491 3425 1978 
L 3425 0 
L 2847 0 
L 2847 2094 
Q 2847 2600 2669 2842 
Q 2491 3084 2119 3084 
Q 1678 3084 1418 2786 
Q 1159 2488 1159 1978 
L 1159 0 
L 581 0 
L 581 3500 
L 1159 3500 
L 1159 2956 
Q 1356 3278 1631 3431 
Q 1906 3584 2284 3584 
Q 2666 3584 2933 3390 
Q 3200 3197 3328 2828 
z
" transform="scale(0.015625)"/>
       <path id="DejaVuSans-76" d="M 191 3500 
L 800 3500 
L 1894 563 
L 2988 3500 
L 3597 3500 
L 2284 0 
L 1503 0 
L 191 3500 
z
" transform="scale(0.015625)"/>
      </defs>
      <use xlink:href="#DejaVuSans-54"/>
      <use xlink:href="#DejaVuSans-65" x="44.083984"/>
      <use xlink:href="#DejaVuSans-6d" x="105.607422"/>
      <use xlink:href="#DejaVuSans-70" x="203.019531"/>
      <use xlink:href="#DejaVuSans-6f" x="266.496094"/>
      <use xlink:href="#DejaVuSans-20" x="327.677734"/>
      <use xlink:href="#DejaVuSans-72" x="359.464844"/>
      <use xlink:href="#DejaVuSans-65" x="398.328125"/>
      <use xlink:href="#DejaVuSans-6c" x="459.851562"/>
      <use xlink:href="#DejaVuSans-61" x="487.634766"/>
      <use xlink:href="#DejaVuSans-74" x="548.914062"/>
      <use xlink:href="#DejaVuSans-69" x="588.123047"/>
      <use xlink:href="#DejaVuSans-76" x="615.90625"/>
      <use xlink:href="#DejaVuSans-6f" x="675.085938"/>
      <use xlink:href="#DejaVuSans-20" x="736.267578"/>
      <use xlink:href="#DejaVuSans-64" x="768.054688"/>
      <use xlink:href="#DejaVuSans-65" x="831.53125"/>
      <use xlink:href="#DejaVuSans-69" x="893.054688"/>
      <use xlink:href="#DejaVuSans-20" x="920.837891"/>
      <use xlink:href="#DejaVuSans-73" x="952.625"/>
      <use xlink:href="#DejaVuSans-65" x="1004.724609"/>
      <use xlink:href="#DejaVuSans-67" x="1066.248047"/>
      <use xlink:href="#DejaVuSans-6d" x="1129.724609"/>
      <use xlink:href="#DejaVuSans-65" x="1227.136719"/>
      <use xlink:href="#DejaVuSans-6e" x="1288.660156"/>
      <use xlink:href="#DejaVuSans-74" x="1352.039062"/>
      <use xlink:href="#DejaVuSans-69" x="1391.248047"/>
      <use xlink:href="#DejaVuSans-20" x="1419.03125"/>
      <use xlink:href="#DejaVuSans-72" x="1450.818359"/>
      <use xlink:href="#DejaVuSans-65" x="1489.681641"/>
      <use xlink:href="#DejaVuSans-67" x="1551.205078"/>
      <use xlink:href="#DejaVuSans-69" x="1614.681641"/>
      <use xlink:href="#DejaVuSans-73" x="1642.464844"/>
      <use xlink:href="#DejaVuSans-74" x="1694.564453"/>
      <use xlink:href="#DejaVuSans-72" x="1733.773438"/>
      <use xlink:href="#DejaVuSans-61" x="1774.886719"/>
      <use xlink:href="#DejaVuSans-74" x="1836.166016"/>
      <use xlink:href="#DejaVuSans-69" x="1875.375"/>
      <use xlink:href="#DejaVuSans-20" x="1903.158203"/>
      <use xlink:href="#DejaVuSans-28" x="1934.945312"/>
      <use xlink:href="#DejaVuSans-73" x="1973.958984"/>
      <use xlink:href="#DejaVuSans-29" x="2026.058594"/>
     </g>
    </g>
   </g>
   <g id="matplotlib.axis_4">
    <g id="ytick_6">
     <g id="line2d_47">
      <path d="M 55.345313 332.527687 
L 631.633312 332.527687 
" clip-path="url(#p5a71aadf5b)" style="fill: none; stroke: #e6e8f0; stroke-width: 0.8; stroke-linecap: square"/>
     </g>
     <g id="line2d_48">
      <g>
       <use xlink:href="#m18630df52b" x="55.345313" y="332.527687" style="fill: #6f768a; stroke: #6f768a; stroke-width: 0.8"/>
      </g>
     </g>
     <g id="text_20">
      <!-- 0.2 -->
      <g style="fill: #6f768a" transform="translate(32.442188 336.326906) scale(0.1 -0.1)">
       <defs>
        <path id="DejaVuSans-2e" d="M 684 794 
L 1344 794 
L 1344 0 
L 684 0 
L 684 794 
z
" transform="scale(0.015625)"/>
       </defs>
       <use xlink:href="#DejaVuSans-30"/>
       <use xlink:href="#DejaVuSans-2e" x="63.623047"/>
       <use xlink:href="#DejaVuSans-32" x="95.410156"/>
      </g>
     </g>
    </g>
    <g id="ytick_7">
     <g id="line2d_49">
      <path d="M 55.345313 306.163049 
L 631.633312 306.163049 
" clip-path="url(#p5a71aadf5b)" style="fill: none; stroke: #e6e8f0; stroke-width: 0.8; stroke-linecap: square"/>
     </g>
     <g id="line2d_50">
      <g>
       <use xlink:href="#m18630df52b" x="55.345313" y="306.163049" style="fill: #6f768a; stroke: #6f768a; stroke-width: 0.8"/>
      </g>
     </g>
     <g id="text_21">
      <!-- 0.4 -->
      <g style="fill: #6f768a" transform="translate(32.442188 309.962268) scale(0.1 -0.1)">
       <use xlink:href="#DejaVuSans-30"/>
       <use xlink:href="#DejaVuSans-2e" x="63.623047"/>
       <use xlink:href="#DejaVuSans-34" x="95.410156"/>
      </g>
     </g>
    </g>
    <g id="ytick_8">
     <g id="line2d_51">
      <path d="M 55.345313 279.79841 
L 631.633312 279.79841 
" clip-path="url(#p5a71aadf5b)" style="fill: none; stroke: #e6e8f0; stroke-width: 0.8; stroke-linecap: square"/>
     </g>
     <g id="line2d_52">
      <g>
       <use xlink:href="#m18630df52b" x="55.345313" y="279.79841" style="fill: #6f768a; stroke: #6f768a; stroke-width: 0.8"/>
      </g>
     </g>
     <g id="text_22">
      <!-- 0.6 -->
      <g style="fill: #6f768a" transform="translate(32.442188 283.597629) scale(0.1 -0.1)">
       <use xlink:href="#DejaVuSans-30"/>
       <use xlink:href="#DejaVuSans-2e" x="63.623047"/>
       <use xlink:href="#DejaVuSans-36" x="95.410156"/>
      </g>
     </g>
    </g>
    <g id="ytick_9">
     <g id="line2d_53">
      <path d="M 55.345313 253.433772 
L 631.633312 253.433772 
" clip-path="url(#p5a71aadf5b)" style="fill: none; stroke: #e6e8f0; stroke-width: 0.8; stroke-linecap: square"/>
     </g>
     <g id="line2d_54">
      <g>
       <use xlink:href="#m18630df52b" x="55.345313" y="253.433772" style="fill: #6f768a; stroke: #6f768a; stroke-width: 0.8"/>
      </g>
     </g>
     <g id="text_23">
      <!-- 0.8 -->
      <g style="fill: #6f768a" transform="translate(32.442188 257.232991) scale(0.1 -0.1)">
       <use xlink:href="#DejaVuSans-30"/>
       <use xlink:href="#DejaVuSans-2e" x="63.623047"/>
       <use xlink:href="#DejaVuSans-38" x="95.410156"/>
      </g>
     </g>
    </g>
    <g id="text_24">
     <!-- Quota base (m) -->
     <g style="fill: #1f2430" transform="translate(26.3625 333.221639) rotate(-90) scale(0.1 -0.1)">
      <defs>
       <path id="DejaVuSans-51" d="M 2522 4238 
Q 1834 4238 1429 3725 
Q 1025 3213 1025 2328 
Q 1025 1447 1429 934 
Q 1834 422 2522 422 
Q 3209 422 3611 934 
Q 4013 1447 4013 2328 
Q 4013 3213 3611 3725 
Q 3209 4238 2522 4238 
z
M 3406 84 
L 4238 -825 
L 3475 -825 
L 2784 -78 
Q 2681 -84 2626 -87 
Q 2572 -91 2522 -91 
Q 1538 -91 948 567 
Q 359 1225 359 2328 
Q 359 3434 948 4092 
Q 1538 4750 2522 4750 
Q 3503 4750 4090 4092 
Q 4678 3434 4678 2328 
Q 4678 1516 4351 937 
Q 4025 359 3406 84 
z
" transform="scale(0.015625)"/>
       <path id="DejaVuSans-75" d="M 544 1381 
L 544 3500 
L 1119 3500 
L 1119 1403 
Q 1119 906 1312 657 
Q 1506 409 1894 409 
Q 2359 409 2629 706 
Q 2900 1003 2900 1516 
L 2900 3500 
L 3475 3500 
L 3475 0 
L 2900 0 
L 2900 538 
Q 2691 219 2414 64 
Q 2138 -91 1772 -91 
Q 1169 -91 856 284 
Q 544 659 544 1381 
z
M 1991 3584 
L 1991 3584 
z
" transform="scale(0.015625)"/>
       <path id="DejaVuSans-62" d="M 3116 1747 
Q 3116 2381 2855 2742 
Q 2594 3103 2138 3103 
Q 1681 3103 1420 2742 
Q 1159 2381 1159 1747 
Q 1159 1113 1420 752 
Q 1681 391 2138 391 
Q 2594 391 2855 752 
Q 3116 1113 3116 1747 
z
M 1159 2969 
Q 1341 3281 1617 3432 
Q 1894 3584 2278 3584 
Q 2916 3584 3314 3078 
Q 3713 2572 3713 1747 
Q 3713 922 3314 415 
Q 2916 -91 2278 -91 
Q 1894 -91 1617 61 
Q 1341 213 1159 525 
L 1159 0 
L 581 0 
L 581 4863 
L 1159 4863 
L 1159 2969 
z
" transform="scale(0.015625)"/>
      </defs>
      <use xlink:href="#DejaVuSans-51"/>
      <use xlink:href="#DejaVuSans-75" x="78.710938"/>
      <use xlink:href="#DejaVuSans-6f" x="142.089844"/>
      <use xlink:href="#DejaVuSans-74" x="203.271484"/>
      <use xlink:href="#DejaVuSans-61" x="242.480469"/>
      <use xlink:href="#DejaVuSans-20" x="303.759766"/>
      <use xlink:href="#DejaVuSans-62" x="335.546875"/>
      <use xlink:href="#DejaVuSans-61" x="399.023438"/>
      <use xlink:href="#DejaVuSans-73" x="460.302734"/>
      <use xlink:href="#DejaVuSans-65" x="512.402344"/>
      <use xlink:href="#DejaVuSans-20" x="573.925781"/>
      <use xlink:href="#DejaVuSans-28" x="605.712891"/>
      <use xlink:href="#DejaVuSans-6d" x="644.726562"/>
      <use xlink:href="#DejaVuSans-29" x="742.138672"/>
     </g>
    </g>
   </g>
   <g id="line2d_55">
    <path d="M 81.540222 254.356534 
L 82.344363 256.419233 
L 82.746434 256.379967 
L 83.148505 256.176041 
L 83.550575 256.107171 
L 83.952646 256.392642 
L 84.354717 257.112825 
L 85.158858 256.652143 
L 86.365071 256.384868 
L 87.169212 256.729162 
L 87.973354 256.176813 
L 88.777495 256.165557 
L 89.179566 256.23809 
L 89.581637 256.704606 
L 89.983707 256.879027 
L 90.385778 256.581059 
L 91.994061 256.095325 
L 92.396132 256.413128 
L 92.798202 256.306814 
L 93.200273 256.012524 
L 93.602344 255.894474 
L 94.406485 256.010793 
L 94.808556 256.466854 
L 95.210627 257.497331 
L 96.014768 257.193681 
L 96.81891 257.043271 
L 97.623051 257.147455 
L 98.025122 257.826863 
L 98.427193 258.11673 
L 98.829264 257.843375 
L 99.633405 256.903192 
L 100.035476 256.800194 
L 100.437547 257.042016 
L 100.839617 257.806652 
L 101.643759 257.454775 
L 102.04583 257.297221 
L 102.849971 257.326791 
L 103.252042 258.343259 
L 103.654113 258.590409 
L 104.056183 258.271476 
L 105.262396 256.902479 
L 105.664466 257.237064 
L 106.066537 258.000088 
L 106.870679 257.409183 
L 108.076891 257.121201 
L 108.478962 257.253468 
L 108.881032 258.101845 
L 109.283103 258.169702 
L 110.087245 257.312907 
L 110.489315 257.108632 
L 110.891386 257.19848 
L 111.293457 258.1998 
L 111.695528 258.288071 
L 112.90174 257.242999 
L 113.303811 256.928123 
L 113.705881 256.827603 
L 114.107952 256.848885 
L 114.912093 256.325365 
L 115.716235 256.326519 
L 116.118306 256.480163 
L 116.520376 257.162489 
L 117.726589 256.373224 
L 118.128659 256.355486 
L 118.53073 256.156078 
L 118.932801 255.561084 
L 119.334872 255.21783 
L 120.139013 257.043446 
L 120.541084 256.860599 
L 120.943155 257.116388 
L 121.747296 258.316524 
L 122.149367 257.856579 
L 122.551438 257.573818 
L 123.355579 256.833892 
L 124.159721 256.309389 
L 124.963862 255.279517 
L 125.365933 256.241558 
L 126.974216 261.143409 
L 127.376287 260.03683 
L 127.778357 257.954476 
L 128.582499 252.893557 
L 128.98457 252.263545 
L 129.38664 252.703516 
L 129.788711 253.401725 
L 130.190782 256.134877 
L 130.592853 262.67959 
L 130.994923 273.368488 
L 131.396994 287.923157 
L 131.799065 296.208877 
L 132.201136 294.465161 
L 133.005277 288.620695 
L 133.407348 291.6332 
L 133.809419 297.424026 
L 134.211489 298.087156 
L 134.61356 303.229597 
L 135.015631 312.048283 
L 135.417702 316.746571 
L 135.819772 318.183323 
L 136.221843 320.167271 
L 136.623914 323.372025 
L 137.428055 335.284405 
L 138.232197 327.503885 
L 138.634267 325.53444 
L 139.438409 323.493772 
L 140.24255 324.324014 
L 140.644621 318.136732 
L 141.046692 309.464076 
L 141.448763 310.09355 
L 141.850833 318.481826 
L 142.252904 320.408527 
L 142.654975 320.238992 
L 143.057046 318.935403 
L 143.861187 314.749611 
L 144.263258 313.646408 
L 145.067399 315.0762 
L 145.871541 306.649079 
L 146.273612 305.854841 
L 147.077753 316.107891 
L 148.283965 309.861481 
L 148.686036 313.222323 
L 149.088107 319.323638 
L 149.490178 318.299274 
L 150.294319 307.475663 
L 150.69639 305.140724 
L 151.098461 308.972126 
L 151.500531 318.144953 
L 151.902602 323.823717 
L 152.304673 324.089963 
L 152.706744 320.644865 
L 153.108814 318.329457 
L 153.510885 317.618388 
L 153.912956 316.624407 
L 154.315027 317.604168 
L 154.717097 318.927924 
L 155.92331 309.331648 
L 156.32538 310.709193 
L 157.129522 323.812721 
L 157.933663 324.565393 
L 158.335734 324.579537 
L 158.737805 323.478011 
L 159.139876 321.616519 
L 159.541946 321.633939 
L 160.346088 325.180486 
L 160.748159 327.421441 
L 161.150229 328.113963 
L 161.5523 326.131016 
L 161.954371 321.633274 
L 162.356442 319.478381 
L 162.758512 318.86028 
L 163.160583 320.672687 
L 163.562654 325.122235 
L 163.964724 326.945721 
L 164.366795 327.02325 
L 164.768866 324.907228 
L 165.170937 324.982913 
L 165.170937 324.982913 
" clip-path="url(#p5a71aadf5b)" style="fill: none; stroke: #71b436; stroke-width: 1.3; stroke-linecap: square"/>
   </g>
   <g id="line2d_56">
    <path d="M 172.006139 254.672796 
L 172.274187 255.700961 
L 172.676257 257.524344 
L 173.212352 258.424183 
L 173.614422 259.035247 
L 173.88247 259.001575 
L 174.150517 258.960053 
L 174.28454 259.078696 
L 174.552587 259.907422 
L 174.820635 261.133399 
L 175.356729 262.244319 
L 175.892823 263.131363 
L 176.16087 263.812903 
L 176.294894 263.930589 
L 176.696965 265.187434 
L 177.099036 267.93548 
L 177.233059 267.474853 
L 177.769153 264.282644 
L 177.903177 264.088543 
L 178.037201 264.173967 
L 178.171224 264.028695 
L 178.573295 263.202558 
L 178.841342 263.937614 
L 179.377436 262.987811 
L 179.51146 263.139388 
L 179.779507 264.506878 
L 180.047554 265.749814 
L 180.583649 266.830961 
L 180.851696 268.537104 
L 181.253767 274.191088 
L 181.655837 283.382054 
L 182.191932 301.461853 
L 182.728026 326.647958 
L 182.996073 339.106356 
L 183.130097 338.289801 
L 183.532167 334.000455 
L 183.666191 334.104911 
L 184.068262 338.130826 
L 184.202285 337.43548 
L 184.336309 337.563157 
L 184.470333 338.316376 
L 184.604356 338.186417 
L 185.006427 336.785851 
L 185.408498 336.247921 
L 185.944592 334.658591 
L 186.078616 334.945641 
L 186.346663 335.845934 
L 186.61471 334.855413 
L 186.882757 333.914336 
L 187.284828 336.572664 
L 187.418851 336.468324 
L 187.820922 335.73783 
L 187.954946 335.684686 
L 188.222993 335.965618 
L 188.49104 336.573711 
L 189.027134 336.058831 
L 189.295181 336.248327 
L 189.429205 336.453427 
L 189.697252 337.432071 
L 189.965299 338.187978 
L 190.36737 340.160167 
L 190.501394 340.368411 
L 190.769441 341.207901 
L 191.037488 340.82868 
L 191.975653 341.797292 
L 192.511747 342.225196 
L 192.645771 342.187442 
L 192.779795 341.978137 
L 193.181865 340.590323 
L 193.315889 341.287686 
L 193.449913 342.730173 
L 193.449913 342.730173 
" clip-path="url(#p5a71aadf5b)" style="fill: none; stroke: #71b436; stroke-width: 1.3; stroke-linecap: square"/>
   </g>
   <g id="line2d_57">
    <path d="M 200.151092 254.672796 
L 200.285115 255.315663 
L 200.419139 256.315593 
L 200.553162 257.749891 
L 200.687186 259.590356 
L 200.82121 261.082863 
L 200.955233 261.88423 
L 201.089257 262.362205 
L 201.22328 262.931622 
L 201.357304 263.950622 
L 201.491327 264.990088 
L 201.625351 265.82699 
L 201.759375 266.496507 
L 201.893398 267.088926 
L 202.027422 267.658239 
L 202.161445 268.161123 
L 202.295469 268.572481 
L 202.429493 268.893509 
L 202.563516 269.148053 
L 202.69754 269.364762 
L 202.831563 269.555463 
L 202.965587 269.72449 
L 203.09961 269.898787 
L 203.233634 270.079427 
L 203.367658 270.22435 
L 203.501681 270.184207 
L 203.635705 269.968151 
L 203.769728 269.662474 
L 203.903752 269.298612 
L 204.037775 268.868861 
L 204.171799 268.402385 
L 204.305823 267.980632 
L 204.439846 267.684931 
L 204.57387 267.580124 
L 204.707893 267.72088 
L 204.841917 268.161462 
L 204.975941 268.789196 
L 205.109964 269.270867 
L 205.243988 269.398342 
L 205.378011 269.340765 
L 205.512035 269.165737 
L 205.646058 268.914371 
L 205.780082 268.539803 
L 205.914106 268.058779 
L 206.048129 267.514155 
L 206.182153 266.982414 
L 206.316176 266.532136 
L 206.4502 266.124982 
L 206.584224 265.848853 
L 206.718247 265.676168 
L 206.852271 265.683215 
L 206.986294 265.863162 
L 207.120318 266.308262 
L 207.254341 267.30958 
L 207.388365 268.895374 
L 207.522389 270.87449 
L 207.656412 273.167329 
L 207.790436 275.761825 
L 207.924459 278.728738 
L 208.058483 282.425413 
L 208.192507 287.094968 
L 208.32653 292.473605 
L 208.460554 298.21135 
L 208.594577 304.024886 
L 208.728601 310.006683 
L 208.862624 316.471306 
L 208.996648 323.492881 
L 209.130672 331.061306 
L 209.264695 336.722865 
L 209.398719 337.175424 
L 209.532742 337.205884 
L 209.666766 337.406501 
L 209.80079 337.391332 
L 209.934813 336.86361 
L 210.068837 336.508717 
L 210.20286 336.109668 
L 210.336884 335.125768 
L 210.470907 333.513543 
L 210.604931 332.109373 
L 210.738955 331.194938 
L 210.872978 330.166465 
L 211.007002 328.97853 
L 211.141025 328.257733 
L 211.275049 328.03838 
L 211.409072 328.292863 
L 211.543096 328.485398 
L 211.67712 328.513896 
L 211.811143 328.555723 
L 211.945167 328.946238 
L 212.07919 330.128468 
L 212.213214 331.967194 
L 212.347238 333.648478 
L 212.481261 335.088921 
L 212.615285 335.733344 
" clip-path="url(#p5a71aadf5b)" style="fill: none; stroke: #71b436; stroke-width: 1.3; stroke-linecap: square"/>
   </g>
   <g id="line2d_58">
    <path d="M 219.316464 254.672796 
L 219.450487 255.221397 
L 219.584511 255.851373 
L 219.718535 256.476127 
L 219.852558 257.033568 
L 219.986582 257.496832 
L 220.120605 257.933592 
L 220.254629 258.38967 
L 220.388652 258.868882 
L 220.522676 259.285555 
L 220.6567 259.614025 
L 220.790723 259.855132 
L 220.924747 260.014878 
L 221.05877 260.105191 
L 221.192794 260.157299 
L 221.326818 260.227145 
L 221.460841 260.38906 
L 221.594865 260.747831 
L 221.728888 261.395257 
L 221.862912 262.004719 
L 221.996935 262.397167 
L 222.130959 262.716806 
L 222.264983 263.043104 
L 222.399006 263.369086 
L 222.53303 263.66411 
L 222.667053 263.94015 
L 222.801077 264.143065 
L 222.935101 264.481993 
L 223.069124 264.713298 
L 223.203148 265.143069 
L 223.337171 265.557719 
L 223.471195 265.607738 
L 223.605218 265.823473 
L 223.739242 265.95521 
L 223.873266 266.32794 
" clip-path="url(#p5a71aadf5b)" style="fill: none; stroke: #71b436; stroke-width: 1.3; stroke-linecap: square"/>
   </g>
   <g id="line2d_59">
    <path d="M 230.574445 254.672796 
L 230.708468 255.110408 
L 230.842492 255.225927 
L 230.976515 255.199243 
L 231.110539 255.198223 
L 231.244563 255.282756 
L 231.378586 255.453236 
L 231.51261 255.680281 
L 231.646633 255.920728 
L 231.780657 256.139324 
L 231.914681 256.325069 
L 232.048704 256.483062 
L 232.182728 256.625674 
L 232.316751 256.766833 
L 232.450775 256.927927 
L 232.584798 257.145886 
L 232.718822 257.483807 
L 232.852846 258.004743 
L 232.986869 258.381233 
L 233.120893 258.654081 
L 233.254916 258.93588 
L 233.38894 259.248792 
L 233.522964 259.569902 
L 233.656987 259.888634 
L 233.791011 260.205843 
L 233.925034 260.524937 
L 234.059058 260.859635 
L 234.193081 261.210402 
L 234.327105 261.642023 
L 234.461129 261.914507 
L 234.595152 262.341071 
L 234.729176 263.043519 
L 234.863199 263.488333 
L 234.997223 263.934914 
" clip-path="url(#p5a71aadf5b)" style="fill: none; stroke: #71b436; stroke-width: 1.3; stroke-linecap: square"/>
   </g>
   <g id="line2d_60">
    <path d="M 241.698402 254.672796 
L 241.832426 255.148919 
L 241.966449 255.398978 
L 242.100473 255.427349 
L 242.234496 255.387024 
L 242.36852 255.389405 
L 242.502544 255.475849 
L 242.636567 255.633898 
L 242.770591 255.832541 
L 242.904614 256.036863 
L 243.038638 256.218242 
L 243.172661 256.36295 
L 243.306685 256.478784 
L 243.440709 256.583461 
L 243.574732 256.699808 
L 243.708756 256.860642 
L 243.842779 257.123676 
L 243.976803 257.565021 
L 244.110826 257.944404 
" clip-path="url(#p5a71aadf5b)" style="fill: none; stroke: #71b436; stroke-width: 1.3; stroke-linecap: square"/>
   </g>
   <g id="line2d_61">
    <path d="M 250.812006 254.672796 
L 252.688336 256.78951 
L 254.564666 257.712868 
L 256.440996 262.556324 
L 258.317326 258.425129 
L 260.193656 257.238064 
L 263.946317 259.79123 
L 265.822647 256.600836 
L 267.698977 257.400773 
L 269.575307 257.769885 
L 271.451637 257.067242 
L 273.327967 257.84338 
L 275.204297 259.292099 
L 277.080628 257.515797 
L 278.956958 257.619522 
L 280.833288 256.704172 
L 282.709618 256.045191 
L 284.585948 256.902168 
L 286.462278 257.964812 
L 288.338609 257.578198 
L 290.214939 257.366918 
L 293.967599 257.826716 
L 295.843929 257.317542 
L 297.720259 257.842748 
L 299.596589 257.056801 
L 301.47292 257.848986 
L 303.34925 257.484974 
L 305.22558 256.703792 
L 307.10191 257.235103 
L 308.97824 257.169114 
L 310.85457 255.663515 
L 312.7309 258.800023 
L 314.607231 256.710732 
L 318.359891 256.270002 
L 320.236221 255.038534 
L 322.112551 255.55035 
L 323.988881 254.237137 
L 325.865211 253.999118 
L 327.741542 253.099676 
L 329.617872 254.725229 
L 331.494202 253.059494 
L 333.370532 252.110088 
L 335.246862 254.848243 
L 337.123192 253.2893 
L 338.999523 254.785146 
L 340.875853 252.159917 
L 342.752183 254.753446 
L 344.628513 253.097255 
L 346.504843 254.633063 
L 348.381173 256.885469 
L 350.257503 258.60203 
L 352.133834 257.0309 
L 354.010164 255.86646 
L 355.886494 256.884801 
L 357.762824 256.229687 
L 359.639154 256.231471 
L 361.515484 256.426285 
L 367.144475 256.365229 
L 369.020805 256.604868 
L 372.773465 256.278213 
L 376.526125 256.746547 
L 378.402456 256.199253 
L 380.278786 256.361956 
L 382.155116 257.215758 
L 384.031446 256.131345 
L 385.907776 256.200252 
L 387.784106 257.01249 
L 389.660436 256.045225 
L 391.536767 256.127764 
L 393.413097 256.727797 
L 395.289427 256.035187 
L 397.165757 256.10135 
L 399.042087 257.597066 
L 400.918417 256.165591 
L 402.794748 253.015634 
L 404.671078 252.506473 
L 406.547408 251.145881 
L 408.423738 250.93891 
L 410.300068 255.891376 
L 412.176398 253.66529 
L 414.052728 254.921906 
L 415.929059 254.115854 
L 417.805389 254.398453 
L 419.681719 257.286076 
L 421.558049 257.110309 
L 423.434379 258.202697 
L 425.310709 257.337628 
L 427.187039 256.179373 
L 429.06337 255.974666 
L 430.9397 256.558745 
L 432.81603 255.923896 
L 434.69236 255.854599 
L 436.56869 256.403827 
L 438.44502 257.590949 
L 440.32135 256.167375 
L 442.197681 253.398171 
L 444.074011 253.783597 
L 445.950341 254.052209 
L 447.826671 250.34641 
L 449.703001 249.42848 
L 451.579331 249.843819 
L 453.455661 248.997826 
L 455.331992 250.315238 
L 457.208322 252.121333 
L 459.084652 251.564904 
L 460.960982 252.987812 
L 462.837312 254.993859 
L 464.713642 253.981796 
L 466.589973 255.249533 
L 468.466303 255.987413 
L 470.342633 254.506869 
L 472.218963 252.047358 
L 474.095293 250.694159 
L 475.971623 248.747142 
L 477.847953 247.63665 
L 479.724284 245.919662 
L 481.600614 244.77742 
L 483.476944 243.146181 
L 485.353274 240.949312 
L 489.105934 239.09481 
L 490.982264 238.043668 
L 492.858595 240.489607 
L 494.734925 259.776862 
L 496.611255 269.686666 
L 498.487585 259.243837 
L 500.363915 259.640533 
L 502.240245 258.335313 
L 504.116575 259.604778 
L 505.992906 259.389931 
L 507.869236 257.107956 
L 509.745566 257.042153 
L 515.374556 256.080875 
L 517.250886 256.841632 
L 519.127217 256.396298 
L 521.003547 256.140095 
L 522.879877 256.553768 
L 524.756207 255.969023 
L 526.632537 256.171042 
L 528.508867 256.532093 
L 530.385198 255.89438 
L 532.261528 256.578219 
L 534.137858 256.229026 
L 536.014188 256.145974 
L 537.890518 258.206209 
L 539.766848 257.833956 
L 541.643178 257.974386 
L 543.519509 258.618751 
L 545.395839 257.409649 
L 547.272169 257.547446 
L 549.148499 257.96165 
L 551.024829 257.579472 
L 552.901159 257.320158 
L 554.777489 257.650266 
L 556.65382 258.113195 
L 558.53015 256.793538 
L 560.40648 259.733228 
L 562.28281 256.172076 
L 564.15914 257.230634 
L 566.03547 258.888761 
L 567.9118 259.928109 
L 569.788131 253.752078 
L 571.664461 265.75961 
L 573.540791 315.395004 
L 575.417121 339.009215 
L 577.293451 349.76212 
L 579.169781 343.25604 
L 581.046111 342.024674 
L 582.922442 346.793439 
L 584.798772 348.710518 
L 586.675102 336.377286 
L 588.551432 325.456701 
L 590.427762 336.177734 
L 592.304092 335.144863 
L 594.180423 332.36267 
L 596.056753 336.295353 
L 597.933083 337.572316 
L 599.809413 336.0015 
L 601.685743 335.273862 
L 603.562073 338.570136 
L 605.438403 350.283984 
L 605.438403 350.283984 
" clip-path="url(#p5a71aadf5b)" style="fill: none; stroke: #71b436; stroke-width: 1.3; stroke-linecap: square"/>
   </g>
   <g id="patch_6">
    <path d="M 55.345313 355.896 
L 55.345313 232.431652 
" style="fill: none; stroke: #d7dbe7; stroke-width: 0.8; stroke-linejoin: miter; stroke-linecap: square"/>
   </g>
   <g id="patch_7">
    <path d="M 55.345313 355.896 
L 631.633312 355.896 
" style="fill: none; stroke: #d7dbe7; stroke-width: 0.8; stroke-linejoin: miter; stroke-linecap: square"/>
   </g>
  </g>
  <g id="text_25">
   <!-- Assetto e quota evidenziano gli eventi critici -->
   <g style="fill: #1f2430" transform="translate(42.097313 17.837812) scale(0.14 -0.14)">
    <defs>
     <path id="DejaVuSans-Bold-41" d="M 3419 850 
L 1538 850 
L 1241 0 
L 31 0 
L 1759 4666 
L 3194 4666 
L 4922 0 
L 3713 0 
L 3419 850 
z
M 1838 1716 
L 3116 1716 
L 2478 3572 
L 1838 1716 
z
" transform="scale(0.015625)"/>
     <path id="DejaVuSans-Bold-73" d="M 3272 3391 
L 3272 2541 
Q 2913 2691 2578 2766 
Q 2244 2841 1947 2841 
Q 1628 2841 1473 2761 
Q 1319 2681 1319 2516 
Q 1319 2381 1436 2309 
Q 1553 2238 1856 2203 
L 2053 2175 
Q 2913 2066 3209 1816 
Q 3506 1566 3506 1031 
Q 3506 472 3093 190 
Q 2681 -91 1863 -91 
Q 1516 -91 1145 -36 
Q 775 19 384 128 
L 384 978 
Q 719 816 1070 734 
Q 1422 653 1784 653 
Q 2113 653 2278 743 
Q 2444 834 2444 1013 
Q 2444 1163 2330 1236 
Q 2216 1309 1875 1350 
L 1678 1375 
Q 931 1469 631 1722 
Q 331 1975 331 2491 
Q 331 3047 712 3315 
Q 1094 3584 1881 3584 
Q 2191 3584 2531 3537 
Q 2872 3491 3272 3391 
z
" transform="scale(0.015625)"/>
     <path id="DejaVuSans-Bold-65" d="M 4031 1759 
L 4031 1441 
L 1416 1441 
Q 1456 1047 1700 850 
Q 1944 653 2381 653 
Q 2734 653 3104 758 
Q 3475 863 3866 1075 
L 3866 213 
Q 3469 63 3072 -14 
Q 2675 -91 2278 -91 
Q 1328 -91 801 392 
Q 275 875 275 1747 
Q 275 2603 792 3093 
Q 1309 3584 2216 3584 
Q 3041 3584 3536 3087 
Q 4031 2591 4031 1759 
z
M 2881 2131 
Q 2881 2450 2695 2645 
Q 2509 2841 2209 2841 
Q 1884 2841 1681 2658 
Q 1478 2475 1428 2131 
L 2881 2131 
z
" transform="scale(0.015625)"/>
     <path id="DejaVuSans-Bold-74" d="M 1759 4494 
L 1759 3500 
L 2913 3500 
L 2913 2700 
L 1759 2700 
L 1759 1216 
Q 1759 972 1856 886 
Q 1953 800 2241 800 
L 2816 800 
L 2816 0 
L 1856 0 
Q 1194 0 917 276 
Q 641 553 641 1216 
L 641 2700 
L 84 2700 
L 84 3500 
L 641 3500 
L 641 4494 
L 1759 4494 
z
" transform="scale(0.015625)"/>
     <path id="DejaVuSans-Bold-6f" d="M 2203 2784 
Q 1831 2784 1636 2517 
Q 1441 2250 1441 1747 
Q 1441 1244 1636 976 
Q 1831 709 2203 709 
Q 2569 709 2762 976 
Q 2956 1244 2956 1747 
Q 2956 2250 2762 2517 
Q 2569 2784 2203 2784 
z
M 2203 3584 
Q 3106 3584 3614 3096 
Q 4122 2609 4122 1747 
Q 4122 884 3614 396 
Q 3106 -91 2203 -91 
Q 1297 -91 786 396 
Q 275 884 275 1747 
Q 275 2609 786 3096 
Q 1297 3584 2203 3584 
z
" transform="scale(0.015625)"/>
     <path id="DejaVuSans-Bold-20" transform="scale(0.015625)"/>
     <path id="DejaVuSans-Bold-71" d="M 2181 2772 
Q 1825 2772 1636 2509 
Q 1447 2247 1447 1747 
Q 1447 1247 1636 984 
Q 1825 722 2181 722 
Q 2541 722 2730 984 
Q 2919 1247 2919 1747 
Q 2919 2247 2730 2509 
Q 2541 2772 2181 2772 
z
M 2919 506 
Q 2688 197 2409 53 
Q 2131 -91 1766 -91 
Q 1119 -91 703 423 
Q 288 938 288 1747 
Q 288 2556 703 3067 
Q 1119 3578 1766 3578 
Q 2131 3578 2409 3434 
Q 2688 3291 2919 2981 
L 2919 3500 
L 4044 3500 
L 4044 -1331 
L 2919 -1331 
L 2919 506 
z
" transform="scale(0.015625)"/>
     <path id="DejaVuSans-Bold-75" d="M 500 1363 
L 500 3500 
L 1625 3500 
L 1625 3150 
Q 1625 2866 1622 2436 
Q 1619 2006 1619 1863 
Q 1619 1441 1641 1255 
Q 1663 1069 1716 984 
Q 1784 875 1895 815 
Q 2006 756 2150 756 
Q 2500 756 2700 1025 
Q 2900 1294 2900 1772 
L 2900 3500 
L 4019 3500 
L 4019 0 
L 2900 0 
L 2900 506 
Q 2647 200 2364 54 
Q 2081 -91 1741 -91 
Q 1134 -91 817 281 
Q 500 653 500 1363 
z
" transform="scale(0.015625)"/>
     <path id="DejaVuSans-Bold-61" d="M 2106 1575 
Q 1756 1575 1579 1456 
Q 1403 1338 1403 1106 
Q 1403 894 1545 773 
Q 1688 653 1941 653 
Q 2256 653 2472 879 
Q 2688 1106 2688 1447 
L 2688 1575 
L 2106 1575 
z
M 3816 1997 
L 3816 0 
L 2688 0 
L 2688 519 
Q 2463 200 2181 54 
Q 1900 -91 1497 -91 
Q 953 -91 614 226 
Q 275 544 275 1050 
Q 275 1666 698 1953 
Q 1122 2241 2028 2241 
L 2688 2241 
L 2688 2328 
Q 2688 2594 2478 2717 
Q 2269 2841 1825 2841 
Q 1466 2841 1156 2769 
Q 847 2697 581 2553 
L 581 3406 
Q 941 3494 1303 3539 
Q 1666 3584 2028 3584 
Q 2975 3584 3395 3211 
Q 3816 2838 3816 1997 
z
" transform="scale(0.015625)"/>
     <path id="DejaVuSans-Bold-76" d="M 97 3500 
L 1216 3500 
L 2088 1081 
L 2956 3500 
L 4078 3500 
L 2700 0 
L 1472 0 
L 97 3500 
z
" transform="scale(0.015625)"/>
     <path id="DejaVuSans-Bold-69" d="M 538 3500 
L 1656 3500 
L 1656 0 
L 538 0 
L 538 3500 
z
M 538 4863 
L 1656 4863 
L 1656 3950 
L 538 3950 
L 538 4863 
z
" transform="scale(0.015625)"/>
     <path id="DejaVuSans-Bold-64" d="M 2919 2988 
L 2919 4863 
L 4044 4863 
L 4044 0 
L 2919 0 
L 2919 506 
Q 2688 197 2409 53 
Q 2131 -91 1766 -91 
Q 1119 -91 703 423 
Q 288 938 288 1747 
Q 288 2556 703 3070 
Q 1119 3584 1766 3584 
Q 2128 3584 2408 3439 
Q 2688 3294 2919 2988 
z
M 2181 722 
Q 2541 722 2730 984 
Q 2919 1247 2919 1747 
Q 2919 2247 2730 2509 
Q 2541 2772 2181 2772 
Q 1825 2772 1636 2509 
Q 1447 2247 1447 1747 
Q 1447 1247 1636 984 
Q 1825 722 2181 722 
z
" transform="scale(0.015625)"/>
     <path id="DejaVuSans-Bold-6e" d="M 4056 2131 
L 4056 0 
L 2931 0 
L 2931 347 
L 2931 1631 
Q 2931 2084 2911 2256 
Q 2891 2428 2841 2509 
Q 2775 2619 2662 2680 
Q 2550 2741 2406 2741 
Q 2056 2741 1856 2470 
Q 1656 2200 1656 1722 
L 1656 0 
L 538 0 
L 538 3500 
L 1656 3500 
L 1656 2988 
Q 1909 3294 2193 3439 
Q 2478 3584 2822 3584 
Q 3428 3584 3742 3212 
Q 4056 2841 4056 2131 
z
" transform="scale(0.015625)"/>
     <path id="DejaVuSans-Bold-7a" d="M 366 3500 
L 3419 3500 
L 3419 2719 
L 1575 800 
L 3419 800 
L 3419 0 
L 288 0 
L 288 781 
L 2131 2700 
L 366 2700 
L 366 3500 
z
" transform="scale(0.015625)"/>
     <path id="DejaVuSans-Bold-67" d="M 2919 594 
Q 2688 288 2409 144 
Q 2131 0 1766 0 
Q 1125 0 706 504 
Q 288 1009 288 1791 
Q 288 2575 706 3076 
Q 1125 3578 1766 3578 
Q 2131 3578 2409 3434 
Q 2688 3291 2919 2981 
L 2919 3500 
L 4044 3500 
L 4044 353 
Q 4044 -491 3511 -936 
Q 2978 -1381 1966 -1381 
Q 1638 -1381 1331 -1331 
Q 1025 -1281 716 -1178 
L 716 -306 
Q 1009 -475 1290 -558 
Q 1572 -641 1856 -641 
Q 2406 -641 2662 -400 
Q 2919 -159 2919 353 
L 2919 594 
z
M 2181 2772 
Q 1834 2772 1640 2515 
Q 1447 2259 1447 1791 
Q 1447 1309 1634 1061 
Q 1822 813 2181 813 
Q 2531 813 2725 1069 
Q 2919 1325 2919 1791 
Q 2919 2259 2725 2515 
Q 2531 2772 2181 2772 
z
" transform="scale(0.015625)"/>
     <path id="DejaVuSans-Bold-6c" d="M 538 4863 
L 1656 4863 
L 1656 0 
L 538 0 
L 538 4863 
z
" transform="scale(0.015625)"/>
     <path id="DejaVuSans-Bold-63" d="M 3366 3391 
L 3366 2478 
Q 3138 2634 2908 2709 
Q 2678 2784 2431 2784 
Q 1963 2784 1702 2511 
Q 1441 2238 1441 1747 
Q 1441 1256 1702 982 
Q 1963 709 2431 709 
Q 2694 709 2930 787 
Q 3166 866 3366 1019 
L 3366 103 
Q 3103 6 2833 -42 
Q 2563 -91 2291 -91 
Q 1344 -91 809 395 
Q 275 881 275 1747 
Q 275 2613 809 3098 
Q 1344 3584 2291 3584 
Q 2566 3584 2833 3536 
Q 3100 3488 3366 3391 
z
" transform="scale(0.015625)"/>
     <path id="DejaVuSans-Bold-72" d="M 3138 2547 
Q 2991 2616 2845 2648 
Q 2700 2681 2553 2681 
Q 2122 2681 1889 2404 
Q 1656 2128 1656 1613 
L 1656 0 
L 538 0 
L 538 3500 
L 1656 3500 
L 1656 2925 
Q 1872 3269 2151 3426 
Q 2431 3584 2822 3584 
Q 2878 3584 2943 3579 
Q 3009 3575 3134 3559 
L 3138 2547 
z
" transform="scale(0.015625)"/>
    </defs>
    <use xlink:href="#DejaVuSans-Bold-41"/>
    <use xlink:href="#DejaVuSans-Bold-73" x="77.392578"/>
    <use xlink:href="#DejaVuSans-Bold-73" x="136.914062"/>
    <use xlink:href="#DejaVuSans-Bold-65" x="196.435547"/>
    <use xlink:href="#DejaVuSans-Bold-74" x="264.257812"/>
    <use xlink:href="#DejaVuSans-Bold-74" x="312.060547"/>
    <use xlink:href="#DejaVuSans-Bold-6f" x="359.863281"/>
    <use xlink:href="#DejaVuSans-Bold-20" x="428.564453"/>
    <use xlink:href="#DejaVuSans-Bold-65" x="463.378906"/>
    <use xlink:href="#DejaVuSans-Bold-20" x="531.201172"/>
    <use xlink:href="#DejaVuSans-Bold-71" x="566.015625"/>
    <use xlink:href="#DejaVuSans-Bold-75" x="637.597656"/>
    <use xlink:href="#DejaVuSans-Bold-6f" x="708.789062"/>
    <use xlink:href="#DejaVuSans-Bold-74" x="777.490234"/>
    <use xlink:href="#DejaVuSans-Bold-61" x="825.292969"/>
    <use xlink:href="#DejaVuSans-Bold-20" x="892.773438"/>
    <use xlink:href="#DejaVuSans-Bold-65" x="927.587891"/>
    <use xlink:href="#DejaVuSans-Bold-76" x="995.410156"/>
    <use xlink:href="#DejaVuSans-Bold-69" x="1060.595703"/>
    <use xlink:href="#DejaVuSans-Bold-64" x="1094.873047"/>
    <use xlink:href="#DejaVuSans-Bold-65" x="1166.455078"/>
    <use xlink:href="#DejaVuSans-Bold-6e" x="1234.277344"/>
    <use xlink:href="#DejaVuSans-Bold-7a" x="1305.46875"/>
    <use xlink:href="#DejaVuSans-Bold-69" x="1363.671875"/>
    <use xlink:href="#DejaVuSans-Bold-61" x="1397.949219"/>
    <use xlink:href="#DejaVuSans-Bold-6e" x="1465.429688"/>
    <use xlink:href="#DejaVuSans-Bold-6f" x="1536.621094"/>
    <use xlink:href="#DejaVuSans-Bold-20" x="1605.322266"/>
    <use xlink:href="#DejaVuSans-Bold-67" x="1640.136719"/>
    <use xlink:href="#DejaVuSans-Bold-6c" x="1711.71875"/>
    <use xlink:href="#DejaVuSans-Bold-69" x="1745.996094"/>
    <use xlink:href="#DejaVuSans-Bold-20" x="1780.273438"/>
    <use xlink:href="#DejaVuSans-Bold-65" x="1815.087891"/>
    <use xlink:href="#DejaVuSans-Bold-76" x="1882.910156"/>
    <use xlink:href="#DejaVuSans-Bold-65" x="1948.095703"/>
    <use xlink:href="#DejaVuSans-Bold-6e" x="2015.917969"/>
    <use xlink:href="#DejaVuSans-Bold-74" x="2087.109375"/>
    <use xlink:href="#DejaVuSans-Bold-69" x="2134.912109"/>
    <use xlink:href="#DejaVuSans-Bold-20" x="2169.189453"/>
    <use xlink:href="#DejaVuSans-Bold-63" x="2204.003906"/>
    <use xlink:href="#DejaVuSans-Bold-72" x="2263.28125"/>
    <use xlink:href="#DejaVuSans-Bold-69" x="2312.597656"/>
    <use xlink:href="#DejaVuSans-Bold-74" x="2346.875"/>
    <use xlink:href="#DejaVuSans-Bold-69" x="2394.677734"/>
    <use xlink:href="#DejaVuSans-Bold-63" x="2428.955078"/>
    <use xlink:href="#DejaVuSans-Bold-69" x="2488.232422"/>
   </g>
  </g>
  <g id="text_26">
   <!-- Scenario obstacle: segmenti registrati in ordine, separati nei punti di reset/discontinuita. -->
   <g style="fill: #6f768a" transform="translate(42.097313 35.298516) scale(0.095 -0.095)">
    <defs>
     <path id="DejaVuSans-53" d="M 3425 4513 
L 3425 3897 
Q 3066 4069 2747 4153 
Q 2428 4238 2131 4238 
Q 1616 4238 1336 4038 
Q 1056 3838 1056 3469 
Q 1056 3159 1242 3001 
Q 1428 2844 1947 2747 
L 2328 2669 
Q 3034 2534 3370 2195 
Q 3706 1856 3706 1288 
Q 3706 609 3251 259 
Q 2797 -91 1919 -91 
Q 1588 -91 1214 -16 
Q 841 59 441 206 
L 441 856 
Q 825 641 1194 531 
Q 1563 422 1919 422 
Q 2459 422 2753 634 
Q 3047 847 3047 1241 
Q 3047 1584 2836 1778 
Q 2625 1972 2144 2069 
L 1759 2144 
Q 1053 2284 737 2584 
Q 422 2884 422 3419 
Q 422 4038 858 4394 
Q 1294 4750 2059 4750 
Q 2388 4750 2728 4690 
Q 3069 4631 3425 4513 
z
" transform="scale(0.015625)"/>
     <path id="DejaVuSans-3a" d="M 750 794 
L 1409 794 
L 1409 0 
L 750 0 
L 750 794 
z
M 750 3309 
L 1409 3309 
L 1409 2516 
L 750 2516 
L 750 3309 
z
" transform="scale(0.015625)"/>
     <path id="DejaVuSans-2c" d="M 750 794 
L 1409 794 
L 1409 256 
L 897 -744 
L 494 -744 
L 750 256 
L 750 794 
z
" transform="scale(0.015625)"/>
     <path id="DejaVuSans-2f" d="M 1625 4666 
L 2156 4666 
L 531 -594 
L 0 -594 
L 1625 4666 
z
" transform="scale(0.015625)"/>
    </defs>
    <use xlink:href="#DejaVuSans-53"/>
    <use xlink:href="#DejaVuSans-63" x="63.476562"/>
    <use xlink:href="#DejaVuSans-65" x="118.457031"/>
    <use xlink:href="#DejaVuSans-6e" x="179.980469"/>
    <use xlink:href="#DejaVuSans-61" x="243.359375"/>
    <use xlink:href="#DejaVuSans-72" x="304.638672"/>
    <use xlink:href="#DejaVuSans-69" x="345.751953"/>
    <use xlink:href="#DejaVuSans-6f" x="373.535156"/>
    <use xlink:href="#DejaVuSans-20" x="434.716797"/>
    <use xlink:href="#DejaVuSans-6f" x="466.503906"/>
    <use xlink:href="#DejaVuSans-62" x="527.685547"/>
    <use xlink:href="#DejaVuSans-73" x="591.162109"/>
    <use xlink:href="#DejaVuSans-74" x="643.261719"/>
    <use xlink:href="#DejaVuSans-61" x="682.470703"/>
    <use xlink:href="#DejaVuSans-63" x="743.75"/>
    <use xlink:href="#DejaVuSans-6c" x="798.730469"/>
    <use xlink:href="#DejaVuSans-65" x="826.513672"/>
    <use xlink:href="#DejaVuSans-3a" x="888.037109"/>
    <use xlink:href="#DejaVuSans-20" x="921.728516"/>
    <use xlink:href="#DejaVuSans-73" x="953.515625"/>
    <use xlink:href="#DejaVuSans-65" x="1005.615234"/>
    <use xlink:href="#DejaVuSans-67" x="1067.138672"/>
    <use xlink:href="#DejaVuSans-6d" x="1130.615234"/>
    <use xlink:href="#DejaVuSans-65" x="1228.027344"/>
    <use xlink:href="#DejaVuSans-6e" x="1289.550781"/>
    <use xlink:href="#DejaVuSans-74" x="1352.929688"/>
    <use xlink:href="#DejaVuSans-69" x="1392.138672"/>
    <use xlink:href="#DejaVuSans-20" x="1419.921875"/>
    <use xlink:href="#DejaVuSans-72" x="1451.708984"/>
    <use xlink:href="#DejaVuSans-65" x="1490.572266"/>
    <use xlink:href="#DejaVuSans-67" x="1552.095703"/>
    <use xlink:href="#DejaVuSans-69" x="1615.572266"/>
    <use xlink:href="#DejaVuSans-73" x="1643.355469"/>
    <use xlink:href="#DejaVuSans-74" x="1695.455078"/>
    <use xlink:href="#DejaVuSans-72" x="1734.664062"/>
    <use xlink:href="#DejaVuSans-61" x="1775.777344"/>
    <use xlink:href="#DejaVuSans-74" x="1837.056641"/>
    <use xlink:href="#DejaVuSans-69" x="1876.265625"/>
    <use xlink:href="#DejaVuSans-20" x="1904.048828"/>
    <use xlink:href="#DejaVuSans-69" x="1935.835938"/>
    <use xlink:href="#DejaVuSans-6e" x="1963.619141"/>
    <use xlink:href="#DejaVuSans-20" x="2026.998047"/>
    <use xlink:href="#DejaVuSans-6f" x="2058.785156"/>
    <use xlink:href="#DejaVuSans-72" x="2119.966797"/>
    <use xlink:href="#DejaVuSans-64" x="2159.330078"/>
    <use xlink:href="#DejaVuSans-69" x="2222.806641"/>
    <use xlink:href="#DejaVuSans-6e" x="2250.589844"/>
    <use xlink:href="#DejaVuSans-65" x="2313.96875"/>
    <use xlink:href="#DejaVuSans-2c" x="2375.492188"/>
    <use xlink:href="#DejaVuSans-20" x="2407.279297"/>
    <use xlink:href="#DejaVuSans-73" x="2439.066406"/>
    <use xlink:href="#DejaVuSans-65" x="2491.166016"/>
    <use xlink:href="#DejaVuSans-70" x="2552.689453"/>
    <use xlink:href="#DejaVuSans-61" x="2616.166016"/>
    <use xlink:href="#DejaVuSans-72" x="2677.445312"/>
    <use xlink:href="#DejaVuSans-61" x="2718.558594"/>
    <use xlink:href="#DejaVuSans-74" x="2779.837891"/>
    <use xlink:href="#DejaVuSans-69" x="2819.046875"/>
    <use xlink:href="#DejaVuSans-20" x="2846.830078"/>
    <use xlink:href="#DejaVuSans-6e" x="2878.617188"/>
    <use xlink:href="#DejaVuSans-65" x="2941.996094"/>
    <use xlink:href="#DejaVuSans-69" x="3003.519531"/>
    <use xlink:href="#DejaVuSans-20" x="3031.302734"/>
    <use xlink:href="#DejaVuSans-70" x="3063.089844"/>
    <use xlink:href="#DejaVuSans-75" x="3126.566406"/>
    <use xlink:href="#DejaVuSans-6e" x="3189.945312"/>
    <use xlink:href="#DejaVuSans-74" x="3253.324219"/>
    <use xlink:href="#DejaVuSans-69" x="3292.533203"/>
    <use xlink:href="#DejaVuSans-20" x="3320.316406"/>
    <use xlink:href="#DejaVuSans-64" x="3352.103516"/>
    <use xlink:href="#DejaVuSans-69" x="3415.580078"/>
    <use xlink:href="#DejaVuSans-20" x="3443.363281"/>
    <use xlink:href="#DejaVuSans-72" x="3475.150391"/>
    <use xlink:href="#DejaVuSans-65" x="3514.013672"/>
    <use xlink:href="#DejaVuSans-73" x="3575.537109"/>
    <use xlink:href="#DejaVuSans-65" x="3627.636719"/>
    <use xlink:href="#DejaVuSans-74" x="3689.160156"/>
    <use xlink:href="#DejaVuSans-2f" x="3728.369141"/>
    <use xlink:href="#DejaVuSans-64" x="3762.060547"/>
    <use xlink:href="#DejaVuSans-69" x="3825.537109"/>
    <use xlink:href="#DejaVuSans-73" x="3853.320312"/>
    <use xlink:href="#DejaVuSans-63" x="3905.419922"/>
    <use xlink:href="#DejaVuSans-6f" x="3960.400391"/>
    <use xlink:href="#DejaVuSans-6e" x="4021.582031"/>
    <use xlink:href="#DejaVuSans-74" x="4084.960938"/>
    <use xlink:href="#DejaVuSans-69" x="4124.169922"/>
    <use xlink:href="#DejaVuSans-6e" x="4151.953125"/>
    <use xlink:href="#DejaVuSans-75" x="4215.332031"/>
    <use xlink:href="#DejaVuSans-69" x="4278.710938"/>
    <use xlink:href="#DejaVuSans-74" x="4306.494141"/>
    <use xlink:href="#DejaVuSans-61" x="4345.703125"/>
    <use xlink:href="#DejaVuSans-2e" x="4406.982422"/>
   </g>
  </g>
 </g>
 <defs>
  <clipPath id="p8e2fd872ab">
   <rect x="55.345313" y="71.928" width="576.288" height="123.464348"/>
  </clipPath>
  <clipPath id="p5a71aadf5b">
   <rect x="55.345313" y="232.431652" width="576.288" height="123.464348"/>
  </clipPath>
 </defs>
</svg>
