<?xml version="1.0" encoding="utf-8" standalone="no"?>
<!DOCTYPE svg PUBLIC "-//W3C//DTD SVG 1.1//EN"
  "http://www.w3.org/Graphics/SVG/1.1/DTD/svg11.dtd">
<svg xmlns:xlink="http://www.w3.org/1999/xlink" width="497.372312pt" height="365.51625pt" viewBox="0 0 497.372312 365.51625" xmlns="http://www.w3.org/2000/svg" version="1.1">
 <metadata>
  <rdf:RDF xmlns:dc="http://purl.org/dc/elements/1.1/" xmlns:cc="http://creativecommons.org/ns#" xmlns:rdf="http://www.w3.org/1999/02/22-rdf-syntax-ns#">
   <cc:Work>
    <dc:type rdf:resource="http://purl.org/dc/dcmitype/StillImage"/>
    <dc:date>2026-06-15T19:05:39.860143</dc:date>
    <dc:format>image/svg+xml</dc:format>
    <dc:creator>
     <cc:Agent>
      <dc:title>Matplotlib v3.6.3, https://matplotlib.org/</dc:title>
     </cc:Agent>
    </dc:creator>
   </cc:Work>
  </rdf:RDF>
 </metadata>
 <defs>
  <style type="text/css">*{stroke-linejoin: round; stroke-linecap: butt}</style>
 </defs>
 <g id="figure_1">
  <g id="patch_1">
   <path d="M 0 365.51625 
L 497.372312 365.51625 
L 497.372312 0 
L 0 0 
z
" style="fill: #fcfcfd"/>
  </g>
  <g id="axes_1">
   <g id="patch_2">
    <path d="M 42.620313 327.96 
L 490.172313 327.96 
L 490.172313 75.24 
L 42.620313 75.24 
z
" style="fill: #ffffff"/>
   </g>
   <g id="matplotlib.axis_1">
    <g id="xtick_1">
     <g id="line2d_1">
      <defs>
       <path id="m07b421b300" d="M 0 0 
L 0 3.5 
" style="stroke: #6f768a; stroke-width: 0.8"/>
      </defs>
      <g>
       <use xlink:href="#m07b421b300" x="71.439415" y="327.96" style="fill: #6f768a; stroke: #6f768a; stroke-width: 0.8"/>
      </g>
     </g>
     <g id="text_1">
      <!-- −3 -->
      <g style="fill: #6f768a" transform="translate(64.068321 342.558437) scale(0.1 -0.1)">
       <defs>
        <path id="DejaVuSans-2212" d="M 678 2272 
L 4684 2272 
L 4684 1741 
L 678 1741 
L 678 2272 
z
" transform="scale(0.015625)"/>
        <path id="DejaVuSans-33" d="M 2597 2516 
Q 3050 2419 3304 2112 
Q 3559 1806 3559 1356 
Q 3559 666 3084 287 
Q 2609 -91 1734 -91 
Q 1441 -91 1130 -33 
Q 819 25 488 141 
L 488 750 
Q 750 597 1062 519 
Q 1375 441 1716 441 
Q 2309 441 2620 675 
Q 2931 909 2931 1356 
Q 2931 1769 2642 2001 
Q 2353 2234 1838 2234 
L 1294 2234 
L 1294 2753 
L 1863 2753 
Q 2328 2753 2575 2939 
Q 2822 3125 2822 3475 
Q 2822 3834 2567 4026 
Q 2313 4219 1838 4219 
Q 1578 4219 1281 4162 
Q 984 4106 628 3988 
L 628 4550 
Q 988 4650 1302 4700 
Q 1616 4750 1894 4750 
Q 2613 4750 3031 4423 
Q 3450 4097 3450 3541 
Q 3450 3153 3228 2886 
Q 3006 2619 2597 2516 
z
" transform="scale(0.015625)"/>
       </defs>
       <use xlink:href="#DejaVuSans-2212"/>
       <use xlink:href="#DejaVuSans-33" x="83.789062"/>
      </g>
     </g>
    </g>
    <g id="xtick_2">
     <g id="line2d_2">
      <g>
       <use xlink:href="#m07b421b300" x="122.866636" y="327.96" style="fill: #6f768a; stroke: #6f768a; stroke-width: 0.8"/>
      </g>
     </g>
     <g id="text_2">
      <!-- −2 -->
      <g style="fill: #6f768a" transform="translate(115.495542 342.558437) scale(0.1 -0.1)">
       <defs>
        <path id="DejaVuSans-32" d="M 1228 531 
L 3431 531 
L 3431 0 
L 469 0 
L 469 531 
Q 828 903 1448 1529 
Q 2069 2156 2228 2338 
Q 2531 2678 2651 2914 
Q 2772 3150 2772 3378 
Q 2772 3750 2511 3984 
Q 2250 4219 1831 4219 
Q 1534 4219 1204 4116 
Q 875 4013 500 3803 
L 500 4441 
Q 881 4594 1212 4672 
Q 1544 4750 1819 4750 
Q 2544 4750 2975 4387 
Q 3406 4025 3406 3419 
Q 3406 3131 3298 2873 
Q 3191 2616 2906 2266 
Q 2828 2175 2409 1742 
Q 1991 1309 1228 531 
z
" transform="scale(0.015625)"/>
       </defs>
       <use xlink:href="#DejaVuSans-2212"/>
       <use xlink:href="#DejaVuSans-32" x="83.789062"/>
      </g>
     </g>
    </g>
    <g id="xtick_3">
     <g id="line2d_3">
      <g>
       <use xlink:href="#m07b421b300" x="174.293857" y="327.96" style="fill: #6f768a; stroke: #6f768a; stroke-width: 0.8"/>
      </g>
     </g>
     <g id="text_3">
      <!-- −1 -->
      <g style="fill: #6f768a" transform="translate(166.922763 342.558437) scale(0.1 -0.1)">
       <defs>
        <path id="DejaVuSans-31" d="M 794 531 
L 1825 531 
L 1825 4091 
L 703 3866 
L 703 4441 
L 1819 4666 
L 2450 4666 
L 2450 531 
L 3481 531 
L 3481 0 
L 794 0 
L 794 531 
z
" transform="scale(0.015625)"/>
       </defs>
       <use xlink:href="#DejaVuSans-2212"/>
       <use xlink:href="#DejaVuSans-31" x="83.789062"/>
      </g>
     </g>
    </g>
    <g id="xtick_4">
     <g id="line2d_4">
      <g>
       <use xlink:href="#m07b421b300" x="225.721078" y="327.96" style="fill: #6f768a; stroke: #6f768a; stroke-width: 0.8"/>
      </g>
     </g>
     <g id="text_4">
      <!-- 0 -->
      <g style="fill: #6f768a" transform="translate(222.539828 342.558437) scale(0.1 -0.1)">
       <defs>
        <path id="DejaVuSans-30" d="M 2034 4250 
Q 1547 4250 1301 3770 
Q 1056 3291 1056 2328 
Q 1056 1369 1301 889 
Q 1547 409 2034 409 
Q 2525 409 2770 889 
Q 3016 1369 3016 2328 
Q 3016 3291 2770 3770 
Q 2525 4250 2034 4250 
z
M 2034 4750 
Q 2819 4750 3233 4129 
Q 3647 3509 3647 2328 
Q 3647 1150 3233 529 
Q 2819 -91 2034 -91 
Q 1250 -91 836 529 
Q 422 1150 422 2328 
Q 422 3509 836 4129 
Q 1250 4750 2034 4750 
z
" transform="scale(0.015625)"/>
       </defs>
       <use xlink:href="#DejaVuSans-30"/>
      </g>
     </g>
    </g>
    <g id="xtick_5">
     <g id="line2d_5">
      <g>
       <use xlink:href="#m07b421b300" x="277.148298" y="327.96" style="fill: #6f768a; stroke: #6f768a; stroke-width: 0.8"/>
      </g>
     </g>
     <g id="text_5">
      <!-- 1 -->
      <g style="fill: #6f768a" transform="translate(273.967048 342.558437) scale(0.1 -0.1)">
       <use xlink:href="#DejaVuSans-31"/>
      </g>
     </g>
    </g>
    <g id="xtick_6">
     <g id="line2d_6">
      <g>
       <use xlink:href="#m07b421b300" x="328.575519" y="327.96" style="fill: #6f768a; stroke: #6f768a; stroke-width: 0.8"/>
      </g>
     </g>
     <g id="text_6">
      <!-- 2 -->
      <g style="fill: #6f768a" transform="translate(325.394269 342.558437) scale(0.1 -0.1)">
       <use xlink:href="#DejaVuSans-32"/>
      </g>
     </g>
    </g>
    <g id="xtick_7">
     <g id="line2d_7">
      <g>
       <use xlink:href="#m07b421b300" x="380.00274" y="327.96" style="fill: #6f768a; stroke: #6f768a; stroke-width: 0.8"/>
      </g>
     </g>
     <g id="text_7">
      <!-- 3 -->
      <g style="fill: #6f768a" transform="translate(376.82149 342.558437) scale(0.1 -0.1)">
       <use xlink:href="#DejaVuSans-33"/>
      </g>
     </g>
    </g>
    <g id="xtick_8">
     <g id="line2d_8">
      <g>
       <use xlink:href="#m07b421b300" x="431.429961" y="327.96" style="fill: #6f768a; stroke: #6f768a; stroke-width: 0.8"/>
      </g>
     </g>
     <g id="text_8">
      <!-- 4 -->
      <g style="fill: #6f768a" transform="translate(428.248711 342.558437) scale(0.1 -0.1)">
       <defs>
        <path id="DejaVuSans-34" d="M 2419 4116 
L 825 1625 
L 2419 1625 
L 2419 4116 
z
M 2253 4666 
L 3047 4666 
L 3047 1625 
L 3713 1625 
L 3713 1100 
L 3047 1100 
L 3047 0 
L 2419 0 
L 2419 1100 
L 313 1100 
L 313 1709 
L 2253 4666 
z
" transform="scale(0.015625)"/>
       </defs>
       <use xlink:href="#DejaVuSans-34"/>
      </g>
     </g>
    </g>
    <g id="xtick_9">
     <g id="line2d_9">
      <g>
       <use xlink:href="#m07b421b300" x="482.857182" y="327.96" style="fill: #6f768a; stroke: #6f768a; stroke-width: 0.8"/>
      </g>
     </g>
     <g id="text_9">
      <!-- 5 -->
      <g style="fill: #6f768a" transform="translate(479.675932 342.558437) scale(0.1 -0.1)">
       <defs>
        <path id="DejaVuSans-35" d="M 691 4666 
L 3169 4666 
L 3169 4134 
L 1269 4134 
L 1269 2991 
Q 1406 3038 1543 3061 
Q 1681 3084 1819 3084 
Q 2600 3084 3056 2656 
Q 3513 2228 3513 1497 
Q 3513 744 3044 326 
Q 2575 -91 1722 -91 
Q 1428 -91 1123 -41 
Q 819 9 494 109 
L 494 744 
Q 775 591 1075 516 
Q 1375 441 1709 441 
Q 2250 441 2565 725 
Q 2881 1009 2881 1497 
Q 2881 1984 2565 2268 
Q 2250 2553 1709 2553 
Q 1456 2553 1204 2497 
Q 953 2441 691 2322 
L 691 4666 
z
" transform="scale(0.015625)"/>
       </defs>
       <use xlink:href="#DejaVuSans-35"/>
      </g>
     </g>
    </g>
    <g id="text_10">
     <!-- X (m) -->
     <g style="fill: #1f2430" transform="translate(252.610375 356.236562) scale(0.1 -0.1)">
      <defs>
       <path id="DejaVuSans-58" d="M 403 4666 
L 1081 4666 
L 2241 2931 
L 3406 4666 
L 4084 4666 
L 2584 2425 
L 4184 0 
L 3506 0 
L 2194 1984 
L 872 0 
L 191 0 
L 1856 2491 
L 403 4666 
z
" transform="scale(0.015625)"/>
       <path id="DejaVuSans-20" transform="scale(0.015625)"/>
       <path id="DejaVuSans-28" d="M 1984 4856 
Q 1566 4138 1362 3434 
Q 1159 2731 1159 2009 
Q 1159 1288 1364 580 
Q 1569 -128 1984 -844 
L 1484 -844 
Q 1016 -109 783 600 
Q 550 1309 550 2009 
Q 550 2706 781 3412 
Q 1013 4119 1484 4856 
L 1984 4856 
z
" transform="scale(0.015625)"/>
       <path id="DejaVuSans-6d" d="M 3328 2828 
Q 3544 3216 3844 3400 
Q 4144 3584 4550 3584 
Q 5097 3584 5394 3201 
Q 5691 2819 5691 2113 
L 5691 0 
L 5113 0 
L 5113 2094 
Q 5113 2597 4934 2840 
Q 4756 3084 4391 3084 
Q 3944 3084 3684 2787 
Q 3425 2491 3425 1978 
L 3425 0 
L 2847 0 
L 2847 2094 
Q 2847 2600 2669 2842 
Q 2491 3084 2119 3084 
Q 1678 3084 1418 2786 
Q 1159 2488 1159 1978 
L 1159 0 
L 581 0 
L 581 3500 
L 1159 3500 
L 1159 2956 
Q 1356 3278 1631 3431 
Q 1906 3584 2284 3584 
Q 2666 3584 2933 3390 
Q 3200 3197 3328 2828 
z
" transform="scale(0.015625)"/>
       <path id="DejaVuSans-29" d="M 513 4856 
L 1013 4856 
Q 1481 4119 1714 3412 
Q 1947 2706 1947 2009 
Q 1947 1309 1714 600 
Q 1481 -109 1013 -844 
L 513 -844 
Q 928 -128 1133 580 
Q 1338 1288 1338 2009 
Q 1338 2731 1133 3434 
Q 928 4138 513 4856 
z
" transform="scale(0.015625)"/>
      </defs>
      <use xlink:href="#DejaVuSans-58"/>
      <use xlink:href="#DejaVuSans-20" x="68.505859"/>
      <use xlink:href="#DejaVuSans-28" x="100.292969"/>
      <use xlink:href="#DejaVuSans-6d" x="139.306641"/>
      <use xlink:href="#DejaVuSans-29" x="236.71875"/>
     </g>
    </g>
   </g>
   <g id="matplotlib.axis_2">
    <g id="ytick_1">
     <g id="line2d_10">
      <path d="M 42.620313 282.048274 
L 490.172313 282.048274 
" clip-path="url(#pe362b217e3)" style="fill: none; stroke: #e6e8f0; stroke-width: 0.8; stroke-linecap: square"/>
     </g>
     <g id="line2d_11">
      <defs>
       <path id="m9ee5cafdb7" d="M 0 0 
L -3.5 0 
" style="stroke: #6f768a; stroke-width: 0.8"/>
      </defs>
      <g>
       <use xlink:href="#m9ee5cafdb7" x="42.620313" y="282.048274" style="fill: #6f768a; stroke: #6f768a; stroke-width: 0.8"/>
      </g>
     </g>
     <g id="text_11">
      <!-- −2 -->
      <g style="fill: #6f768a" transform="translate(20.878125 285.847492) scale(0.1 -0.1)">
       <use xlink:href="#DejaVuSans-2212"/>
       <use xlink:href="#DejaVuSans-32" x="83.789062"/>
      </g>
     </g>
    </g>
    <g id="ytick_2">
     <g id="line2d_12">
      <path d="M 42.620313 230.621053 
L 490.172313 230.621053 
" clip-path="url(#pe362b217e3)" style="fill: none; stroke: #e6e8f0; stroke-width: 0.8; stroke-linecap: square"/>
     </g>
     <g id="line2d_13">
      <g>
       <use xlink:href="#m9ee5cafdb7" x="42.620313" y="230.621053" style="fill: #6f768a; stroke: #6f768a; stroke-width: 0.8"/>
      </g>
     </g>
     <g id="text_12">
      <!-- −1 -->
      <g style="fill: #6f768a" transform="translate(20.878125 234.420271) scale(0.1 -0.1)">
       <use xlink:href="#DejaVuSans-2212"/>
       <use xlink:href="#DejaVuSans-31" x="83.789062"/>
      </g>
     </g>
    </g>
    <g id="ytick_3">
     <g id="line2d_14">
      <path d="M 42.620313 179.193832 
L 490.172313 179.193832 
" clip-path="url(#pe362b217e3)" style="fill: none; stroke: #e6e8f0; stroke-width: 0.8; stroke-linecap: square"/>
     </g>
     <g id="line2d_15">
      <g>
       <use xlink:href="#m9ee5cafdb7" x="42.620313" y="179.193832" style="fill: #6f768a; stroke: #6f768a; stroke-width: 0.8"/>
      </g>
     </g>
     <g id="text_13">
      <!-- 0 -->
      <g style="fill: #6f768a" transform="translate(29.257813 182.99305) scale(0.1 -0.1)">
       <use xlink:href="#DejaVuSans-30"/>
      </g>
     </g>
    </g>
    <g id="ytick_4">
     <g id="line2d_16">
      <path d="M 42.620313 127.766611 
L 490.172313 127.766611 
" clip-path="url(#pe362b217e3)" style="fill: none; stroke: #e6e8f0; stroke-width: 0.8; stroke-linecap: square"/>
     </g>
     <g id="line2d_17">
      <g>
       <use xlink:href="#m9ee5cafdb7" x="42.620313" y="127.766611" style="fill: #6f768a; stroke: #6f768a; stroke-width: 0.8"/>
      </g>
     </g>
     <g id="text_14">
      <!-- 1 -->
      <g style="fill: #6f768a" transform="translate(29.257813 131.56583) scale(0.1 -0.1)">
       <use xlink:href="#DejaVuSans-31"/>
      </g>
     </g>
    </g>
    <g id="ytick_5">
     <g id="line2d_18">
      <path d="M 42.620313 76.33939 
L 490.172313 76.33939 
" clip-path="url(#pe362b217e3)" style="fill: none; stroke: #e6e8f0; stroke-width: 0.8; stroke-linecap: square"/>
     </g>
     <g id="line2d_19">
      <g>
       <use xlink:href="#m9ee5cafdb7" x="42.620313" y="76.33939" style="fill: #6f768a; stroke: #6f768a; stroke-width: 0.8"/>
      </g>
     </g>
     <g id="text_15">
      <!-- 2 -->
      <g style="fill: #6f768a" transform="translate(29.257813 80.138609) scale(0.1 -0.1)">
       <use xlink:href="#DejaVuSans-32"/>
      </g>
     </g>
    </g>
    <g id="text_16">
     <!-- Y (m) -->
     <g style="fill: #1f2430" transform="translate(14.798438 215.014844) rotate(-90) scale(0.1 -0.1)">
      <defs>
       <path id="DejaVuSans-59" d="M -13 4666 
L 666 4666 
L 1959 2747 
L 3244 4666 
L 3922 4666 
L 2272 2222 
L 2272 0 
L 1638 0 
L 1638 2222 
L -13 4666 
z
" transform="scale(0.015625)"/>
      </defs>
      <use xlink:href="#DejaVuSans-59"/>
      <use xlink:href="#DejaVuSans-20" x="61.083984"/>
      <use xlink:href="#DejaVuSans-28" x="92.871094"/>
      <use xlink:href="#DejaVuSans-6d" x="131.884766"/>
      <use xlink:href="#DejaVuSans-29" x="229.296875"/>
     </g>
    </g>
   </g>
   <g id="PathCollection_1">
    <defs>
     <path id="mf482e9176c" d="M 0 2.95804 
C 0.784481 2.95804 1.536938 2.646362 2.09165 2.09165 
C 2.646362 1.536938 2.95804 0.784481 2.95804 0 
C 2.95804 -0.784481 2.646362 -1.536938 2.09165 -2.09165 
C 1.536938 -2.646362 0.784481 -2.95804 0 -2.95804 
C -0.784481 -2.95804 -1.536938 -2.646362 -2.09165 -2.09165 
C -2.646362 -1.536938 -2.95804 -0.784481 -2.95804 0 
C -2.95804 0.784481 -2.646362 1.536938 -2.09165 2.09165 
C -1.536938 2.646362 -0.784481 2.95804 0 2.95804 
z
" style="stroke: #71b436"/>
    </defs>
    <g clip-path="url(#pe362b217e3)">
     <use xlink:href="#mf482e9176c" x="225.721078" y="179.193832" style="fill: #71b436; stroke: #71b436"/>
    </g>
   </g>
   <g id="PathCollection_2">
    <defs>
     <path id="m802ab7be1c" d="M 0 2.95804 
C 0.784481 2.95804 1.536938 2.646362 2.09165 2.09165 
C 2.646362 1.536938 2.95804 0.784481 2.95804 0 
C 2.95804 -0.784481 2.646362 -1.536938 2.09165 -2.09165 
C 1.536938 -2.646362 0.784481 -2.95804 0 -2.95804 
C -0.784481 -2.95804 -1.536938 -2.646362 -2.09165 -2.09165 
C -2.646362 -1.536938 -2.95804 -0.784481 -2.95804 0 
C -2.95804 0.784481 -2.646362 1.536938 -2.09165 2.09165 
C -1.536938 2.646362 -0.784481 2.95804 0 2.95804 
z
" style="stroke: #cc6f47"/>
    </defs>
    <g clip-path="url(#pe362b217e3)">
     <use xlink:href="#m802ab7be1c" x="149.441144" y="86.98815" style="fill: #cc6f47; stroke: #cc6f47"/>
    </g>
   </g>
   <g id="line2d_20">
    <path d="M 225.721078 179.193832 
L 225.253994 179.06962 
L 225.210553 178.832144 
L 225.362946 179.192427 
L 225.778862 179.685344 
L 226.509985 180.208393 
L 227.48735 180.43362 
L 228.786836 180.38045 
L 230.399342 180.085382 
L 234.351405 178.976707 
L 236.071925 179.051803 
L 238.00545 179.440612 
L 240.153928 180.127436 
L 243.458434 181.534521 
L 245.025435 182.293602 
L 246.703244 182.702947 
L 248.38929 182.855431 
L 250.165493 182.809478 
L 251.951614 182.698099 
L 252.809663 182.765221 
L 254.760349 183.232554 
L 256.915785 184.015425 
L 259.207182 185.06604 
L 266.240829 188.605047 
L 268.514986 189.409799 
L 270.874402 190.030364 
L 275.630052 191.075834 
L 277.727793 191.789473 
L 279.925675 192.744522 
L 281.867772 193.836716 
L 286.246111 196.523466 
L 286.988377 196.760843 
L 287.494528 196.721332 
L 287.907263 196.555566 
L 287.888025 196.651077 
L 287.944595 197.196274 
L 287.802745 198.250655 
L 287.169747 200.638093 
L 286.208005 203.740061 
L 284.712567 207.105993 
L 283.395342 209.232587 
L 281.793606 211.620778 
L 280.785285 213.475025 
L 279.888593 215.479269 
L 279.102366 217.738945 
L 278.242337 221.62534 
L 277.439761 225.480294 
L 276.074675 233.392997 
L 275.750225 237.009764 
L 275.747774 239.36065 
L 275.974334 241.801869 
L 276.556218 244.356154 
L 278.716162 252.984713 
L 280.450271 259.829411 
L 281.280704 262.042373 
L 282.31349 264.18981 
L 283.67934 266.304216 
L 290.061864 274.150608 
L 294.689536 279.448135 
L 296.435387 281.030616 
L 298.324526 282.479614 
L 300.509391 283.758085 
L 316.182185 290.822935 
L 318.429245 291.513919 
L 320.748133 292.001339 
L 323.249569 292.20143 
L 339.136576 291.784909 
L 341.49346 291.503262 
L 343.798222 291.032521 
L 346.12453 290.295432 
L 348.460468 289.195274 
L 356.30241 285.139874 
L 362.435046 281.75333 
L 364.349421 280.383005 
L 366.164568 278.836481 
L 367.876663 276.9667 
L 377.351465 264.072436 
L 378.578537 262.032576 
L 379.619422 259.924814 
L 380.457046 257.641208 
L 381.00765 255.125833 
L 383.245673 243.113697 
L 383.723298 239.500256 
L 383.805587 237.246667 
L 383.699465 236.325827 
L 382.984298 234.035919 
L 382.639081 232.824888 
L 382.622067 232.026613 
L 382.803817 231.608016 
L 383.0967 231.53477 
L 383.667606 231.848325 
L 383.77437 232.148482 
L 383.738145 232.543135 
L 383.314198 233.595918 
L 381.995424 235.810262 
L 379.405425 239.424923 
L 378.110029 241.283484 
L 376.974732 243.266542 
L 375.995009 245.386007 
L 373.720838 250.991402 
L 372.552796 253.008842 
L 371.18232 254.90861 
L 369.60377 256.811608 
L 367.762436 258.620643 
L 365.385249 260.936841 
L 364.073996 262.549785 
L 362.300301 265.169308 
L 360.044749 268.808971 
L 358.598703 270.346262 
L 356.83644 271.774238 
L 354.744861 273.147853 
L 351.082147 275.047733 
L 345.632657 277.683354 
L 338.268528 281.592994 
L 336.136235 282.306109 
L 333.829266 282.822956 
L 327.902758 283.860264 
L 326.165066 284.503794 
L 324.657804 285.273667 
L 323.117839 286.519314 
L 321.716763 288.100258 
L 319.886299 290.241816 
L 318.406534 291.527589 
L 315.762756 293.467932 
L 312.046907 296.083485 
L 310.463645 297.542089 
L 309.075438 299.239903 
L 307.86663 301.21557 
L 306.875333 303.414159 
L 305.173567 307.511433 
L 304.175146 309.274827 
L 302.702204 311.431994 
L 300.615565 314.139081 
L 300.279679 314.843882 
L 300.239188 315.375838 
L 300.471544 315.766985 
L 300.69929 316.079907 
L 300.448054 316.242822 
L 299.693438 316.392275 
L 298.635207 316.472727 
L 298.039989 316.149167 
L 297.607828 315.520219 
L 297.290755 314.57925 
L 297.111342 313.330603 
L 297.079969 312.105118 
L 296.732988 310.658633 
L 296.187122 309.169453 
L 295.361937 307.621356 
L 294.244407 306.062786 
L 290.423412 301.526055 
L 288.520898 299.414281 
L 287.408441 298.025461 
L 286.946798 297.614934 
L 286.540974 297.519713 
L 286.114575 297.623034 
L 285.45012 297.90799 
L 284.998946 298.002341 
L 284.558718 297.955189 
L 283.676336 297.545821 
L 282.691868 296.764609 
L 281.578549 295.610988 
L 277.660577 291.172737 
L 276.23663 289.855734 
L 274.620232 288.682797 
L 271.278631 286.597461 
L 270.674058 286.092477 
L 269.705639 284.820788 
L 268.890638 283.30246 
L 268.233616 281.493396 
L 267.599596 279.403829 
L 266.72228 277.426056 
L 265.639934 275.619989 
L 264.421007 274.015861 
L 261.834473 271.45862 
L 260.381736 270.218501 
L 258.741569 268.280532 
L 256.269445 265.074301 
L 253.917846 263.078808 
L 252.015004 261.836705 
L 248.83314 260.009013 
L 246.990349 258.741721 
L 245.430326 257.462921 
L 244.03717 256.058755 
L 242.146329 253.685862 
L 240.822375 251.979281 
L 237.875256 247.419938 
L 235.745573 244.537185 
L 234.925794 242.749172 
L 234.332462 240.856933 
L 234.005905 238.798278 
L 233.416108 232.190063 
L 232.944745 230.152735 
L 232.250841 228.154857 
L 230.055241 223.167611 
L 230.002674 222.561814 
L 230.142172 222.149034 
L 230.526167 221.511947 
L 230.332704 221.360738 
L 228.215951 219.820745 
L 227.229059 218.847058 
L 225.968342 217.202697 
L 225.503354 216.2527 
L 224.396068 213.791639 
L 223.470193 212.539297 
L 222.325306 211.374762 
L 220.906232 210.207458 
L 214.968568 205.901649 
L 212.717681 203.698328 
L 207.760377 198.184364 
L 206.901264 197.64909 
L 206.122703 197.468191 
L 204.97888 197.266628 
L 204.776061 197.040641 
L 204.778686 196.699362 
L 204.629013 195.839774 
L 204.0423 194.707559 
L 203.195634 193.64641 
L 202.102841 192.515945 
L 200.762013 191.456599 
L 200.119331 190.989555 
L 198.896324 189.656117 
L 197.909401 188.131996 
L 197.116604 186.431553 
L 196.515882 184.49545 
L 194.547754 175.148967 
L 193.803211 173.229635 
L 193.035836 171.376541 
L 192.552875 169.245591 
L 192.33592 167.141043 
L 192.455342 164.921035 
L 192.997547 162.589795 
L 195.351375 155.163863 
L 195.839248 153.162038 
L 197.08392 146.000392 
L 197.666966 143.925579 
L 198.464969 141.778998 
L 202.777892 132.459617 
L 203.439228 130.130911 
L 203.66856 128.853051 
L 203.937704 128.527835 
L 204.317291 128.166047 
L 203.997353 128.119768 
L 203.030308 128.23597 
L 202.202118 128.377023 
L 202.270436 128.445196 
L 202.865182 128.505331 
L 203.038428 128.487744 
L 202.757368 128.628312 
L 200.999506 129.354556 
L 200.954426 129.501647 
L 201.007623 129.529357 
L 201.307685 129.577763 
L 201.683319 129.409371 
L 200.515182 129.885711 
L 199.783606 130.197467 
L 199.820972 130.236272 
L 200.868495 130.621454 
L 200.811895 130.689561 
L 200.036375 131.146273 
L 199.334965 131.533804 
L 199.720049 132.059911 
L 199.971822 132.462876 
L 199.730322 132.59148 
L 198.542064 132.816747 
L 197.755244 132.873529 
L 197.590994 133.236812 
L 197.612715 133.642339 
L 197.695931 134.458695 
L 197.47441 134.481754 
L 196.457579 134.194809 
L 195.651456 133.895007 
L 195.529204 134.097307 
L 195.230738 135.239701 
L 194.966827 135.156255 
L 194.112805 134.42056 
L 193.305054 133.758653 
L 193.152997 133.896791 
L 193.038354 134.335045 
L 193.059199 134.487996 
L 192.880194 134.062052 
L 192.308328 132.958806 
L 192.109561 133.416253 
L 191.864506 133.972423 
L 191.819585 133.938642 
L 191.700454 133.565168 
L 191.307084 131.714068 
L 191.193084 131.795714 
L 191.112422 132.388258 
L 191.17692 132.539871 
L 191.225905 132.437943 
L 191.260471 131.524184 
L 191.168798 130.213391 
L 191.036221 130.275187 
L 190.711257 130.733371 
L 190.637484 130.895984 
L 190.591098 130.776554 
L 190.587905 130.066688 
L 190.276078 129.153116 
L 189.424735 127.477813 
L 188.498331 126.509164 
L 187.228794 125.624319 
L 185.209841 124.580159 
L 183.764921 123.817298 
L 182.490359 122.878868 
L 181.214657 121.600193 
L 179.872392 119.99607 
L 177.727515 117.08557 
L 176.37431 115.201791 
L 174.915501 113.558768 
L 173.286258 112.062736 
L 171.438469 110.687528 
L 169.507427 109.367674 
L 167.876722 108.021397 
L 166.2146 106.364116 
L 164.510079 104.422872 
L 161.859475 101.274729 
L 161.017213 100.382567 
L 160.156455 99.704424 
L 158.216305 98.687468 
L 157.273022 98.3475 
L 156.394696 98.151133 
L 155.549878 98.103637 
L 154.731155 98.215472 
L 153.169494 98.936425 
L 151.765779 99.80154 
L 151.04608 100.371433 
L 150.849915 100.811281 
L 151.039932 101.181353 
L 153.360955 103.15264 
L 154.287623 104.132208 
L 155.721916 106.066399 
L 155.864723 106.041175 
L 155.958671 105.883755 
L 155.979628 105.155282 
L 155.719637 103.856928 
L 155.282266 102.185332 
L 155.192563 101.393377 
L 154.652786 99.924812 
L 153.852364 98.575025 
L 152.790184 97.280075 
L 149.93316 94.220652 
L 149.467562 93.308084 
L 149.313616 92.416709 
L 149.479596 90.939887 
L 149.628018 89.803746 
L 149.48192 89.344532 
L 149.307355 89.343619 
L 149.003829 89.706185 
L 148.990384 89.82648 
L 149.124195 89.521985 
L 149.809831 87.932362 
L 149.757633 87.777909 
L 149.525411 87.999518 
L 149.262111 88.477359 
L 149.357488 88.117977 
L 149.758159 86.727273 
L 149.632741 86.779072 
L 149.441144 86.98815 
L 149.441144 86.98815 
" clip-path="url(#pe362b217e3)" style="fill: none; stroke: #5477c4; stroke-width: 1.4; stroke-linecap: square"/>
   </g>
   <g id="patch_3">
    <path d="M 42.620313 327.96 
L 42.620313 75.24 
" style="fill: none; stroke: #d7dbe7; stroke-width: 0.8; stroke-linejoin: miter; stroke-linecap: square"/>
   </g>
   <g id="patch_4">
    <path d="M 42.620313 327.96 
L 490.172312 327.96 
" style="fill: none; stroke: #d7dbe7; stroke-width: 0.8; stroke-linejoin: miter; stroke-linecap: square"/>
   </g>
   <g id="legend_1">
    <g id="PathCollection_3">
     <g>
      <use xlink:href="#mf482e9176c" x="61.620313" y="89.213437" style="fill: #71b436; stroke: #71b436"/>
     </g>
    </g>
    <g id="text_17">
     <!-- start -->
     <g style="fill: #1f2430" transform="translate(79.620313 91.838437) scale(0.1 -0.1)">
      <defs>
       <path id="DejaVuSans-73" d="M 2834 3397 
L 2834 2853 
Q 2591 2978 2328 3040 
Q 2066 3103 1784 3103 
Q 1356 3103 1142 2972 
Q 928 2841 928 2578 
Q 928 2378 1081 2264 
Q 1234 2150 1697 2047 
L 1894 2003 
Q 2506 1872 2764 1633 
Q 3022 1394 3022 966 
Q 3022 478 2636 193 
Q 2250 -91 1575 -91 
Q 1294 -91 989 -36 
Q 684 19 347 128 
L 347 722 
Q 666 556 975 473 
Q 1284 391 1588 391 
Q 1994 391 2212 530 
Q 2431 669 2431 922 
Q 2431 1156 2273 1281 
Q 2116 1406 1581 1522 
L 1381 1569 
Q 847 1681 609 1914 
Q 372 2147 372 2553 
Q 372 3047 722 3315 
Q 1072 3584 1716 3584 
Q 2034 3584 2315 3537 
Q 2597 3491 2834 3397 
z
" transform="scale(0.015625)"/>
       <path id="DejaVuSans-74" d="M 1172 4494 
L 1172 3500 
L 2356 3500 
L 2356 3053 
L 1172 3053 
L 1172 1153 
Q 1172 725 1289 603 
Q 1406 481 1766 481 
L 2356 481 
L 2356 0 
L 1766 0 
Q 1100 0 847 248 
Q 594 497 594 1153 
L 594 3053 
L 172 3053 
L 172 3500 
L 594 3500 
L 594 4494 
L 1172 4494 
z
" transform="scale(0.015625)"/>
       <path id="DejaVuSans-61" d="M 2194 1759 
Q 1497 1759 1228 1600 
Q 959 1441 959 1056 
Q 959 750 1161 570 
Q 1363 391 1709 391 
Q 2188 391 2477 730 
Q 2766 1069 2766 1631 
L 2766 1759 
L 2194 1759 
z
M 3341 1997 
L 3341 0 
L 2766 0 
L 2766 531 
Q 2569 213 2275 61 
Q 1981 -91 1556 -91 
Q 1019 -91 701 211 
Q 384 513 384 1019 
Q 384 1609 779 1909 
Q 1175 2209 1959 2209 
L 2766 2209 
L 2766 2266 
Q 2766 2663 2505 2880 
Q 2244 3097 1772 3097 
Q 1472 3097 1187 3025 
Q 903 2953 641 2809 
L 641 3341 
Q 956 3463 1253 3523 
Q 1550 3584 1831 3584 
Q 2591 3584 2966 3190 
Q 3341 2797 3341 1997 
z
" transform="scale(0.015625)"/>
       <path id="DejaVuSans-72" d="M 2631 2963 
Q 2534 3019 2420 3045 
Q 2306 3072 2169 3072 
Q 1681 3072 1420 2755 
Q 1159 2438 1159 1844 
L 1159 0 
L 581 0 
L 581 3500 
L 1159 3500 
L 1159 2956 
Q 1341 3275 1631 3429 
Q 1922 3584 2338 3584 
Q 2397 3584 2469 3576 
Q 2541 3569 2628 3553 
L 2631 2963 
z
" transform="scale(0.015625)"/>
      </defs>
      <use xlink:href="#DejaVuSans-73"/>
      <use xlink:href="#DejaVuSans-74" x="52.099609"/>
      <use xlink:href="#DejaVuSans-61" x="91.308594"/>
      <use xlink:href="#DejaVuSans-72" x="152.587891"/>
      <use xlink:href="#DejaVuSans-74" x="193.701172"/>
     </g>
    </g>
    <g id="PathCollection_4">
     <g>
      <use xlink:href="#m802ab7be1c" x="61.620313" y="103.891562" style="fill: #cc6f47; stroke: #cc6f47"/>
     </g>
    </g>
    <g id="text_18">
     <!-- fine -->
     <g style="fill: #1f2430" transform="translate(79.620313 106.516562) scale(0.1 -0.1)">
      <defs>
       <path id="DejaVuSans-66" d="M 2375 4863 
L 2375 4384 
L 1825 4384 
Q 1516 4384 1395 4259 
Q 1275 4134 1275 3809 
L 1275 3500 
L 2222 3500 
L 2222 3053 
L 1275 3053 
L 1275 0 
L 697 0 
L 697 3053 
L 147 3053 
L 147 3500 
L 697 3500 
L 697 3744 
Q 697 4328 969 4595 
Q 1241 4863 1831 4863 
L 2375 4863 
z
" transform="scale(0.015625)"/>
       <path id="DejaVuSans-69" d="M 603 3500 
L 1178 3500 
L 1178 0 
L 603 0 
L 603 3500 
z
M 603 4863 
L 1178 4863 
L 1178 4134 
L 603 4134 
L 603 4863 
z
" transform="scale(0.015625)"/>
       <path id="DejaVuSans-6e" d="M 3513 2113 
L 3513 0 
L 2938 0 
L 2938 2094 
Q 2938 2591 2744 2837 
Q 2550 3084 2163 3084 
Q 1697 3084 1428 2787 
Q 1159 2491 1159 1978 
L 1159 0 
L 581 0 
L 581 3500 
L 1159 3500 
L 1159 2956 
Q 1366 3272 1645 3428 
Q 1925 3584 2291 3584 
Q 2894 3584 3203 3211 
Q 3513 2838 3513 2113 
z
" transform="scale(0.015625)"/>
       <path id="DejaVuSans-65" d="M 3597 1894 
L 3597 1613 
L 953 1613 
Q 991 1019 1311 708 
Q 1631 397 2203 397 
Q 2534 397 2845 478 
Q 3156 559 3463 722 
L 3463 178 
Q 3153 47 2828 -22 
Q 2503 -91 2169 -91 
Q 1331 -91 842 396 
Q 353 884 353 1716 
Q 353 2575 817 3079 
Q 1281 3584 2069 3584 
Q 2775 3584 3186 3129 
Q 3597 2675 3597 1894 
z
M 3022 2063 
Q 3016 2534 2758 2815 
Q 2500 3097 2075 3097 
Q 1594 3097 1305 2825 
Q 1016 2553 972 2059 
L 3022 2063 
z
" transform="scale(0.015625)"/>
      </defs>
      <use xlink:href="#DejaVuSans-66"/>
      <use xlink:href="#DejaVuSans-69" x="35.205078"/>
      <use xlink:href="#DejaVuSans-6e" x="62.988281"/>
      <use xlink:href="#DejaVuSans-65" x="126.367188"/>
     </g>
    </g>
   </g>
  </g>
  <g id="text_19">
   <!-- Traiettoria sul piano usata per replay deterministico -->
   <g style="fill: #1f2430" transform="translate(15.980313 17.837812) scale(0.14 -0.14)">
    <defs>
     <path id="DejaVuSans-Bold-54" d="M 31 4666 
L 4331 4666 
L 4331 3756 
L 2784 3756 
L 2784 0 
L 1581 0 
L 1581 3756 
L 31 3756 
L 31 4666 
z
" transform="scale(0.015625)"/>
     <path id="DejaVuSans-Bold-72" d="M 3138 2547 
Q 2991 2616 2845 2648 
Q 2700 2681 2553 2681 
Q 2122 2681 1889 2404 
Q 1656 2128 1656 1613 
L 1656 0 
L 538 0 
L 538 3500 
L 1656 3500 
L 1656 2925 
Q 1872 3269 2151 3426 
Q 2431 3584 2822 3584 
Q 2878 3584 2943 3579 
Q 3009 3575 3134 3559 
L 3138 2547 
z
" transform="scale(0.015625)"/>
     <path id="DejaVuSans-Bold-61" d="M 2106 1575 
Q 1756 1575 1579 1456 
Q 1403 1338 1403 1106 
Q 1403 894 1545 773 
Q 1688 653 1941 653 
Q 2256 653 2472 879 
Q 2688 1106 2688 1447 
L 2688 1575 
L 2106 1575 
z
M 3816 1997 
L 3816 0 
L 2688 0 
L 2688 519 
Q 2463 200 2181 54 
Q 1900 -91 1497 -91 
Q 953 -91 614 226 
Q 275 544 275 1050 
Q 275 1666 698 1953 
Q 1122 2241 2028 2241 
L 2688 2241 
L 2688 2328 
Q 2688 2594 2478 2717 
Q 2269 2841 1825 2841 
Q 1466 2841 1156 2769 
Q 847 2697 581 2553 
L 581 3406 
Q 941 3494 1303 3539 
Q 1666 3584 2028 3584 
Q 2975 3584 3395 3211 
Q 3816 2838 3816 1997 
z
" transform="scale(0.015625)"/>
     <path id="DejaVuSans-Bold-69" d="M 538 3500 
L 1656 3500 
L 1656 0 
L 538 0 
L 538 3500 
z
M 538 4863 
L 1656 4863 
L 1656 3950 
L 538 3950 
L 538 4863 
z
" transform="scale(0.015625)"/>
     <path id="DejaVuSans-Bold-65" d="M 4031 1759 
L 4031 1441 
L 1416 1441 
Q 1456 1047 1700 850 
Q 1944 653 2381 653 
Q 2734 653 3104 758 
Q 3475 863 3866 1075 
L 3866 213 
Q 3469 63 3072 -14 
Q 2675 -91 2278 -91 
Q 1328 -91 801 392 
Q 275 875 275 1747 
Q 275 2603 792 3093 
Q 1309 3584 2216 3584 
Q 3041 3584 3536 3087 
Q 4031 2591 4031 1759 
z
M 2881 2131 
Q 2881 2450 2695 2645 
Q 2509 2841 2209 2841 
Q 1884 2841 1681 2658 
Q 1478 2475 1428 2131 
L 2881 2131 
z
" transform="scale(0.015625)"/>
     <path id="DejaVuSans-Bold-74" d="M 1759 4494 
L 1759 3500 
L 2913 3500 
L 2913 2700 
L 1759 2700 
L 1759 1216 
Q 1759 972 1856 886 
Q 1953 800 2241 800 
L 2816 800 
L 2816 0 
L 1856 0 
Q 1194 0 917 276 
Q 641 553 641 1216 
L 641 2700 
L 84 2700 
L 84 3500 
L 641 3500 
L 641 4494 
L 1759 4494 
z
" transform="scale(0.015625)"/>
     <path id="DejaVuSans-Bold-6f" d="M 2203 2784 
Q 1831 2784 1636 2517 
Q 1441 2250 1441 1747 
Q 1441 1244 1636 976 
Q 1831 709 2203 709 
Q 2569 709 2762 976 
Q 2956 1244 2956 1747 
Q 2956 2250 2762 2517 
Q 2569 2784 2203 2784 
z
M 2203 3584 
Q 3106 3584 3614 3096 
Q 4122 2609 4122 1747 
Q 4122 884 3614 396 
Q 3106 -91 2203 -91 
Q 1297 -91 786 396 
Q 275 884 275 1747 
Q 275 2609 786 3096 
Q 1297 3584 2203 3584 
z
" transform="scale(0.015625)"/>
     <path id="DejaVuSans-Bold-20" transform="scale(0.015625)"/>
     <path id="DejaVuSans-Bold-73" d="M 3272 3391 
L 3272 2541 
Q 2913 2691 2578 2766 
Q 2244 2841 1947 2841 
Q 1628 2841 1473 2761 
Q 1319 2681 1319 2516 
Q 1319 2381 1436 2309 
Q 1553 2238 1856 2203 
L 2053 2175 
Q 2913 2066 3209 1816 
Q 3506 1566 3506 1031 
Q 3506 472 3093 190 
Q 2681 -91 1863 -91 
Q 1516 -91 1145 -36 
Q 775 19 384 128 
L 384 978 
Q 719 816 1070 734 
Q 1422 653 1784 653 
Q 2113 653 2278 743 
Q 2444 834 2444 1013 
Q 2444 1163 2330 1236 
Q 2216 1309 1875 1350 
L 1678 1375 
Q 931 1469 631 1722 
Q 331 1975 331 2491 
Q 331 3047 712 3315 
Q 1094 3584 1881 3584 
Q 2191 3584 2531 3537 
Q 2872 3491 3272 3391 
z
" transform="scale(0.015625)"/>
     <path id="DejaVuSans-Bold-75" d="M 500 1363 
L 500 3500 
L 1625 3500 
L 1625 3150 
Q 1625 2866 1622 2436 
Q 1619 2006 1619 1863 
Q 1619 1441 1641 1255 
Q 1663 1069 1716 984 
Q 1784 875 1895 815 
Q 2006 756 2150 756 
Q 2500 756 2700 1025 
Q 2900 1294 2900 1772 
L 2900 3500 
L 4019 3500 
L 4019 0 
L 2900 0 
L 2900 506 
Q 2647 200 2364 54 
Q 2081 -91 1741 -91 
Q 1134 -91 817 281 
Q 500 653 500 1363 
z
" transform="scale(0.015625)"/>
     <path id="DejaVuSans-Bold-6c" d="M 538 4863 
L 1656 4863 
L 1656 0 
L 538 0 
L 538 4863 
z
" transform="scale(0.015625)"/>
     <path id="DejaVuSans-Bold-70" d="M 1656 506 
L 1656 -1331 
L 538 -1331 
L 538 3500 
L 1656 3500 
L 1656 2988 
Q 1888 3294 2169 3439 
Q 2450 3584 2816 3584 
Q 3463 3584 3878 3070 
Q 4294 2556 4294 1747 
Q 4294 938 3878 423 
Q 3463 -91 2816 -91 
Q 2450 -91 2169 54 
Q 1888 200 1656 506 
z
M 2400 2772 
Q 2041 2772 1848 2508 
Q 1656 2244 1656 1747 
Q 1656 1250 1848 986 
Q 2041 722 2400 722 
Q 2759 722 2948 984 
Q 3138 1247 3138 1747 
Q 3138 2247 2948 2509 
Q 2759 2772 2400 2772 
z
" transform="scale(0.015625)"/>
     <path id="DejaVuSans-Bold-6e" d="M 4056 2131 
L 4056 0 
L 2931 0 
L 2931 347 
L 2931 1631 
Q 2931 2084 2911 2256 
Q 2891 2428 2841 2509 
Q 2775 2619 2662 2680 
Q 2550 2741 2406 2741 
Q 2056 2741 1856 2470 
Q 1656 2200 1656 1722 
L 1656 0 
L 538 0 
L 538 3500 
L 1656 3500 
L 1656 2988 
Q 1909 3294 2193 3439 
Q 2478 3584 2822 3584 
Q 3428 3584 3742 3212 
Q 4056 2841 4056 2131 
z
" transform="scale(0.015625)"/>
     <path id="DejaVuSans-Bold-79" d="M 78 3500 
L 1197 3500 
L 2138 1125 
L 2938 3500 
L 4056 3500 
L 2584 -331 
Q 2363 -916 2067 -1148 
Q 1772 -1381 1288 -1381 
L 641 -1381 
L 641 -647 
L 991 -647 
Q 1275 -647 1404 -556 
Q 1534 -466 1606 -231 
L 1638 -134 
L 78 3500 
z
" transform="scale(0.015625)"/>
     <path id="DejaVuSans-Bold-64" d="M 2919 2988 
L 2919 4863 
L 4044 4863 
L 4044 0 
L 2919 0 
L 2919 506 
Q 2688 197 2409 53 
Q 2131 -91 1766 -91 
Q 1119 -91 703 423 
Q 288 938 288 1747 
Q 288 2556 703 3070 
Q 1119 3584 1766 3584 
Q 2128 3584 2408 3439 
Q 2688 3294 2919 2988 
z
M 2181 722 
Q 2541 722 2730 984 
Q 2919 1247 2919 1747 
Q 2919 2247 2730 2509 
Q 2541 2772 2181 2772 
Q 1825 2772 1636 2509 
Q 1447 2247 1447 1747 
Q 1447 1247 1636 984 
Q 1825 722 2181 722 
z
" transform="scale(0.015625)"/>
     <path id="DejaVuSans-Bold-6d" d="M 3781 2919 
Q 3994 3244 4286 3414 
Q 4578 3584 4928 3584 
Q 5531 3584 5847 3212 
Q 6163 2841 6163 2131 
L 6163 0 
L 5038 0 
L 5038 1825 
Q 5041 1866 5042 1909 
Q 5044 1953 5044 2034 
Q 5044 2406 4934 2573 
Q 4825 2741 4581 2741 
Q 4263 2741 4089 2478 
Q 3916 2216 3909 1719 
L 3909 0 
L 2784 0 
L 2784 1825 
Q 2784 2406 2684 2573 
Q 2584 2741 2328 2741 
Q 2006 2741 1831 2477 
Q 1656 2213 1656 1722 
L 1656 0 
L 531 0 
L 531 3500 
L 1656 3500 
L 1656 2988 
Q 1863 3284 2130 3434 
Q 2397 3584 2719 3584 
Q 3081 3584 3359 3409 
Q 3638 3234 3781 2919 
z
" transform="scale(0.015625)"/>
     <path id="DejaVuSans-Bold-63" d="M 3366 3391 
L 3366 2478 
Q 3138 2634 2908 2709 
Q 2678 2784 2431 2784 
Q 1963 2784 1702 2511 
Q 1441 2238 1441 1747 
Q 1441 1256 1702 982 
Q 1963 709 2431 709 
Q 2694 709 2930 787 
Q 3166 866 3366 1019 
L 3366 103 
Q 3103 6 2833 -42 
Q 2563 -91 2291 -91 
Q 1344 -91 809 395 
Q 275 881 275 1747 
Q 275 2613 809 3098 
Q 1344 3584 2291 3584 
Q 2566 3584 2833 3536 
Q 3100 3488 3366 3391 
z
" transform="scale(0.015625)"/>
    </defs>
    <use xlink:href="#DejaVuSans-Bold-54"/>
    <use xlink:href="#DejaVuSans-Bold-72" x="57.212891"/>
    <use xlink:href="#DejaVuSans-Bold-61" x="106.529297"/>
    <use xlink:href="#DejaVuSans-Bold-69" x="174.009766"/>
    <use xlink:href="#DejaVuSans-Bold-65" x="208.287109"/>
    <use xlink:href="#DejaVuSans-Bold-74" x="276.109375"/>
    <use xlink:href="#DejaVuSans-Bold-74" x="323.912109"/>
    <use xlink:href="#DejaVuSans-Bold-6f" x="371.714844"/>
    <use xlink:href="#DejaVuSans-Bold-72" x="440.416016"/>
    <use xlink:href="#DejaVuSans-Bold-69" x="489.732422"/>
    <use xlink:href="#DejaVuSans-Bold-61" x="524.009766"/>
    <use xlink:href="#DejaVuSans-Bold-20" x="591.490234"/>
    <use xlink:href="#DejaVuSans-Bold-73" x="626.304688"/>
    <use xlink:href="#DejaVuSans-Bold-75" x="685.826172"/>
    <use xlink:href="#DejaVuSans-Bold-6c" x="757.017578"/>
    <use xlink:href="#DejaVuSans-Bold-20" x="791.294922"/>
    <use xlink:href="#DejaVuSans-Bold-70" x="826.109375"/>
    <use xlink:href="#DejaVuSans-Bold-69" x="897.691406"/>
    <use xlink:href="#DejaVuSans-Bold-61" x="931.96875"/>
    <use xlink:href="#DejaVuSans-Bold-6e" x="999.449219"/>
    <use xlink:href="#DejaVuSans-Bold-6f" x="1070.640625"/>
    <use xlink:href="#DejaVuSans-Bold-20" x="1139.341797"/>
    <use xlink:href="#DejaVuSans-Bold-75" x="1174.15625"/>
    <use xlink:href="#DejaVuSans-Bold-73" x="1245.347656"/>
    <use xlink:href="#DejaVuSans-Bold-61" x="1304.869141"/>
    <use xlink:href="#DejaVuSans-Bold-74" x="1372.349609"/>
    <use xlink:href="#DejaVuSans-Bold-61" x="1420.152344"/>
    <use xlink:href="#DejaVuSans-Bold-20" x="1487.632812"/>
    <use xlink:href="#DejaVuSans-Bold-70" x="1522.447266"/>
    <use xlink:href="#DejaVuSans-Bold-65" x="1594.029297"/>
    <use xlink:href="#DejaVuSans-Bold-72" x="1661.851562"/>
    <use xlink:href="#DejaVuSans-Bold-20" x="1711.167969"/>
    <use xlink:href="#DejaVuSans-Bold-72" x="1745.982422"/>
    <use xlink:href="#DejaVuSans-Bold-65" x="1795.298828"/>
    <use xlink:href="#DejaVuSans-Bold-70" x="1863.121094"/>
    <use xlink:href="#DejaVuSans-Bold-6c" x="1934.703125"/>
    <use xlink:href="#DejaVuSans-Bold-61" x="1968.980469"/>
    <use xlink:href="#DejaVuSans-Bold-79" x="2033.335938"/>
    <use xlink:href="#DejaVuSans-Bold-20" x="2098.521484"/>
    <use xlink:href="#DejaVuSans-Bold-64" x="2133.335938"/>
    <use xlink:href="#DejaVuSans-Bold-65" x="2204.917969"/>
    <use xlink:href="#DejaVuSans-Bold-74" x="2272.740234"/>
    <use xlink:href="#DejaVuSans-Bold-65" x="2320.542969"/>
    <use xlink:href="#DejaVuSans-Bold-72" x="2388.365234"/>
    <use xlink:href="#DejaVuSans-Bold-6d" x="2437.681641"/>
    <use xlink:href="#DejaVuSans-Bold-69" x="2541.880859"/>
    <use xlink:href="#DejaVuSans-Bold-6e" x="2576.158203"/>
    <use xlink:href="#DejaVuSans-Bold-69" x="2647.349609"/>
    <use xlink:href="#DejaVuSans-Bold-73" x="2681.626953"/>
    <use xlink:href="#DejaVuSans-Bold-74" x="2741.148438"/>
    <use xlink:href="#DejaVuSans-Bold-69" x="2788.951172"/>
    <use xlink:href="#DejaVuSans-Bold-63" x="2823.228516"/>
    <use xlink:href="#DejaVuSans-Bold-6f" x="2882.505859"/>
   </g>
  </g>
  <g id="text_20">
   <!-- Scenario flat: posizione XY registrata durante la teleoperazione live. -->
   <g style="fill: #6f768a" transform="translate(15.980313 33.858516) scale(0.095 -0.095)">
    <defs>
     <path id="DejaVuSans-53" d="M 3425 4513 
L 3425 3897 
Q 3066 4069 2747 4153 
Q 2428 4238 2131 4238 
Q 1616 4238 1336 4038 
Q 1056 3838 1056 3469 
Q 1056 3159 1242 3001 
Q 1428 2844 1947 2747 
L 2328 2669 
Q 3034 2534 3370 2195 
Q 3706 1856 3706 1288 
Q 3706 609 3251 259 
Q 2797 -91 1919 -91 
Q 1588 -91 1214 -16 
Q 841 59 441 206 
L 441 856 
Q 825 641 1194 531 
Q 1563 422 1919 422 
Q 2459 422 2753 634 
Q 3047 847 3047 1241 
Q 3047 1584 2836 1778 
Q 2625 1972 2144 2069 
L 1759 2144 
Q 1053 2284 737 2584 
Q 422 2884 422 3419 
Q 422 4038 858 4394 
Q 1294 4750 2059 4750 
Q 2388 4750 2728 4690 
Q 3069 4631 3425 4513 
z
" transform="scale(0.015625)"/>
     <path id="DejaVuSans-63" d="M 3122 3366 
L 3122 2828 
Q 2878 2963 2633 3030 
Q 2388 3097 2138 3097 
Q 1578 3097 1268 2742 
Q 959 2388 959 1747 
Q 959 1106 1268 751 
Q 1578 397 2138 397 
Q 2388 397 2633 464 
Q 2878 531 3122 666 
L 3122 134 
Q 2881 22 2623 -34 
Q 2366 -91 2075 -91 
Q 1284 -91 818 406 
Q 353 903 353 1747 
Q 353 2603 823 3093 
Q 1294 3584 2113 3584 
Q 2378 3584 2631 3529 
Q 2884 3475 3122 3366 
z
" transform="scale(0.015625)"/>
     <path id="DejaVuSans-6f" d="M 1959 3097 
Q 1497 3097 1228 2736 
Q 959 2375 959 1747 
Q 959 1119 1226 758 
Q 1494 397 1959 397 
Q 2419 397 2687 759 
Q 2956 1122 2956 1747 
Q 2956 2369 2687 2733 
Q 2419 3097 1959 3097 
z
M 1959 3584 
Q 2709 3584 3137 3096 
Q 3566 2609 3566 1747 
Q 3566 888 3137 398 
Q 2709 -91 1959 -91 
Q 1206 -91 779 398 
Q 353 888 353 1747 
Q 353 2609 779 3096 
Q 1206 3584 1959 3584 
z
" transform="scale(0.015625)"/>
     <path id="DejaVuSans-6c" d="M 603 4863 
L 1178 4863 
L 1178 0 
L 603 0 
L 603 4863 
z
" transform="scale(0.015625)"/>
     <path id="DejaVuSans-3a" d="M 750 794 
L 1409 794 
L 1409 0 
L 750 0 
L 750 794 
z
M 750 3309 
L 1409 3309 
L 1409 2516 
L 750 2516 
L 750 3309 
z
" transform="scale(0.015625)"/>
     <path id="DejaVuSans-70" d="M 1159 525 
L 1159 -1331 
L 581 -1331 
L 581 3500 
L 1159 3500 
L 1159 2969 
Q 1341 3281 1617 3432 
Q 1894 3584 2278 3584 
Q 2916 3584 3314 3078 
Q 3713 2572 3713 1747 
Q 3713 922 3314 415 
Q 2916 -91 2278 -91 
Q 1894 -91 1617 61 
Q 1341 213 1159 525 
z
M 3116 1747 
Q 3116 2381 2855 2742 
Q 2594 3103 2138 3103 
Q 1681 3103 1420 2742 
Q 1159 2381 1159 1747 
Q 1159 1113 1420 752 
Q 1681 391 2138 391 
Q 2594 391 2855 752 
Q 3116 1113 3116 1747 
z
" transform="scale(0.015625)"/>
     <path id="DejaVuSans-7a" d="M 353 3500 
L 3084 3500 
L 3084 2975 
L 922 459 
L 3084 459 
L 3084 0 
L 275 0 
L 275 525 
L 2438 3041 
L 353 3041 
L 353 3500 
z
" transform="scale(0.015625)"/>
     <path id="DejaVuSans-67" d="M 2906 1791 
Q 2906 2416 2648 2759 
Q 2391 3103 1925 3103 
Q 1463 3103 1205 2759 
Q 947 2416 947 1791 
Q 947 1169 1205 825 
Q 1463 481 1925 481 
Q 2391 481 2648 825 
Q 2906 1169 2906 1791 
z
M 3481 434 
Q 3481 -459 3084 -895 
Q 2688 -1331 1869 -1331 
Q 1566 -1331 1297 -1286 
Q 1028 -1241 775 -1147 
L 775 -588 
Q 1028 -725 1275 -790 
Q 1522 -856 1778 -856 
Q 2344 -856 2625 -561 
Q 2906 -266 2906 331 
L 2906 616 
Q 2728 306 2450 153 
Q 2172 0 1784 0 
Q 1141 0 747 490 
Q 353 981 353 1791 
Q 353 2603 747 3093 
Q 1141 3584 1784 3584 
Q 2172 3584 2450 3431 
Q 2728 3278 2906 2969 
L 2906 3500 
L 3481 3500 
L 3481 434 
z
" transform="scale(0.015625)"/>
     <path id="DejaVuSans-64" d="M 2906 2969 
L 2906 4863 
L 3481 4863 
L 3481 0 
L 2906 0 
L 2906 525 
Q 2725 213 2448 61 
Q 2172 -91 1784 -91 
Q 1150 -91 751 415 
Q 353 922 353 1747 
Q 353 2572 751 3078 
Q 1150 3584 1784 3584 
Q 2172 3584 2448 3432 
Q 2725 3281 2906 2969 
z
M 947 1747 
Q 947 1113 1208 752 
Q 1469 391 1925 391 
Q 2381 391 2643 752 
Q 2906 1113 2906 1747 
Q 2906 2381 2643 2742 
Q 2381 3103 1925 3103 
Q 1469 3103 1208 2742 
Q 947 2381 947 1747 
z
" transform="scale(0.015625)"/>
     <path id="DejaVuSans-75" d="M 544 1381 
L 544 3500 
L 1119 3500 
L 1119 1403 
Q 1119 906 1312 657 
Q 1506 409 1894 409 
Q 2359 409 2629 706 
Q 2900 1003 2900 1516 
L 2900 3500 
L 3475 3500 
L 3475 0 
L 2900 0 
L 2900 538 
Q 2691 219 2414 64 
Q 2138 -91 1772 -91 
Q 1169 -91 856 284 
Q 544 659 544 1381 
z
M 1991 3584 
L 1991 3584 
z
" transform="scale(0.015625)"/>
     <path id="DejaVuSans-76" d="M 191 3500 
L 800 3500 
L 1894 563 
L 2988 3500 
L 3597 3500 
L 2284 0 
L 1503 0 
L 191 3500 
z
" transform="scale(0.015625)"/>
     <path id="DejaVuSans-2e" d="M 684 794 
L 1344 794 
L 1344 0 
L 684 0 
L 684 794 
z
" transform="scale(0.015625)"/>
    </defs>
    <use xlink:href="#DejaVuSans-53"/>
    <use xlink:href="#DejaVuSans-63" x="63.476562"/>
    <use xlink:href="#DejaVuSans-65" x="118.457031"/>
    <use xlink:href="#DejaVuSans-6e" x="179.980469"/>
    <use xlink:href="#DejaVuSans-61" x="243.359375"/>
    <use xlink:href="#DejaVuSans-72" x="304.638672"/>
    <use xlink:href="#DejaVuSans-69" x="345.751953"/>
    <use xlink:href="#DejaVuSans-6f" x="373.535156"/>
    <use xlink:href="#DejaVuSans-20" x="434.716797"/>
    <use xlink:href="#DejaVuSans-66" x="466.503906"/>
    <use xlink:href="#DejaVuSans-6c" x="501.708984"/>
    <use xlink:href="#DejaVuSans-61" x="529.492188"/>
    <use xlink:href="#DejaVuSans-74" x="590.771484"/>
    <use xlink:href="#DejaVuSans-3a" x="629.980469"/>
    <use xlink:href="#DejaVuSans-20" x="663.671875"/>
    <use xlink:href="#DejaVuSans-70" x="695.458984"/>
    <use xlink:href="#DejaVuSans-6f" x="758.935547"/>
    <use xlink:href="#DejaVuSans-73" x="820.117188"/>
    <use xlink:href="#DejaVuSans-69" x="872.216797"/>
    <use xlink:href="#DejaVuSans-7a" x="900"/>
    <use xlink:href="#DejaVuSans-69" x="952.490234"/>
    <use xlink:href="#DejaVuSans-6f" x="980.273438"/>
    <use xlink:href="#DejaVuSans-6e" x="1041.455078"/>
    <use xlink:href="#DejaVuSans-65" x="1104.833984"/>
    <use xlink:href="#DejaVuSans-20" x="1166.357422"/>
    <use xlink:href="#DejaVuSans-58" x="1198.144531"/>
    <use xlink:href="#DejaVuSans-59" x="1266.650391"/>
    <use xlink:href="#DejaVuSans-20" x="1327.734375"/>
    <use xlink:href="#DejaVuSans-72" x="1359.521484"/>
    <use xlink:href="#DejaVuSans-65" x="1398.384766"/>
    <use xlink:href="#DejaVuSans-67" x="1459.908203"/>
    <use xlink:href="#DejaVuSans-69" x="1523.384766"/>
    <use xlink:href="#DejaVuSans-73" x="1551.167969"/>
    <use xlink:href="#DejaVuSans-74" x="1603.267578"/>
    <use xlink:href="#DejaVuSans-72" x="1642.476562"/>
    <use xlink:href="#DejaVuSans-61" x="1683.589844"/>
    <use xlink:href="#DejaVuSans-74" x="1744.869141"/>
    <use xlink:href="#DejaVuSans-61" x="1784.078125"/>
    <use xlink:href="#DejaVuSans-20" x="1845.357422"/>
    <use xlink:href="#DejaVuSans-64" x="1877.144531"/>
    <use xlink:href="#DejaVuSans-75" x="1940.621094"/>
    <use xlink:href="#DejaVuSans-72" x="2004"/>
    <use xlink:href="#DejaVuSans-61" x="2045.113281"/>
    <use xlink:href="#DejaVuSans-6e" x="2106.392578"/>
    <use xlink:href="#DejaVuSans-74" x="2169.771484"/>
    <use xlink:href="#DejaVuSans-65" x="2208.980469"/>
    <use xlink:href="#DejaVuSans-20" x="2270.503906"/>
    <use xlink:href="#DejaVuSans-6c" x="2302.291016"/>
    <use xlink:href="#DejaVuSans-61" x="2330.074219"/>
    <use xlink:href="#DejaVuSans-20" x="2391.353516"/>
    <use xlink:href="#DejaVuSans-74" x="2423.140625"/>
    <use xlink:href="#DejaVuSans-65" x="2462.349609"/>
    <use xlink:href="#DejaVuSans-6c" x="2523.873047"/>
    <use xlink:href="#DejaVuSans-65" x="2551.65625"/>
    <use xlink:href="#DejaVuSans-6f" x="2613.179688"/>
    <use xlink:href="#DejaVuSans-70" x="2674.361328"/>
    <use xlink:href="#DejaVuSans-65" x="2737.837891"/>
    <use xlink:href="#DejaVuSans-72" x="2799.361328"/>
    <use xlink:href="#DejaVuSans-61" x="2840.474609"/>
    <use xlink:href="#DejaVuSans-7a" x="2901.753906"/>
    <use xlink:href="#DejaVuSans-69" x="2954.244141"/>
    <use xlink:href="#DejaVuSans-6f" x="2982.027344"/>
    <use xlink:href="#DejaVuSans-6e" x="3043.208984"/>
    <use xlink:href="#DejaVuSans-65" x="3106.587891"/>
    <use xlink:href="#DejaVuSans-20" x="3168.111328"/>
    <use xlink:href="#DejaVuSans-6c" x="3199.898438"/>
    <use xlink:href="#DejaVuSans-69" x="3227.681641"/>
    <use xlink:href="#DejaVuSans-76" x="3255.464844"/>
    <use xlink:href="#DejaVuSans-65" x="3314.644531"/>
    <use xlink:href="#DejaVuSans-2e" x="3376.167969"/>
   </g>
  </g>
 </g>
 <defs>
  <clipPath id="pe362b217e3">
   <rect x="42.620313" y="75.24" width="447.552" height="252.72"/>
  </clipPath>
 </defs>
</svg>
